<?xml version="1.0" encoding="UTF-8"?>
<!-- Created with Inkscape (http://www.inkscape.org/) -->
<svg width="391.86mm" height="233mm" version="1.1" viewBox="0 0 391.86 233" xml:space="preserve" xmlns="http://www.w3.org/2000/svg"><g transform="translate(91.084 -32.002)"><rect x="-91.084" y="32.002" width="391.86" height="233" fill="#fbde72" stroke-width=".24003"/><g transform="rotate(35.458 102.52 148.28)"><path d="m105.95 265.05c0-0.0728 0.0595-0.13229 0.13229-0.13229 0.0728 0 0.13229 0.0595 0.13229 0.13229 0 0.0728-0.0595 0.13229-0.13229 0.13229-0.0728 0-0.13229-0.0595-0.13229-0.13229zm0.26864-0.5797c9e-3 -0.48815 0.51677-1.034 0.52106-0.56039 2e-3 0.24607-0.11501 0.52099-0.26053 0.61093-0.14552 0.0899-0.26276 0.0672-0.26053-0.0505zm0.60095-1.8374c0.28589-1.4062 2.0042-4.8131 2.0236-4.012 0.0485 2.0101-0.67108 3.9636-1.6538 4.4895-0.47725 0.25542-0.51018 0.2129-0.36982-0.47747zm-6.1612-2.2131c0-0.19402 0.0794-0.2734 0.17638-0.17638 0.097 0.097 0.097 0.25576 0 0.35277-0.097 0.097-0.17638 0.0176-0.17638-0.17639zm5.2917-1.5875c0-0.19402 0.0794-0.2734 0.17639-0.17638 0.097 0.097 0.097 0.25576 0 0.35277-0.097 0.097-0.17639 0.0176-0.17639-0.17639zm-3.7042-0.52916c0-0.19403 0.0794-0.27341 0.17638-0.17639 0.097 0.097 0.097 0.25576 0 0.35278-0.097 0.097-0.17638 0.0176-0.17638-0.17639zm-2.3813-0.13229c0-0.0728 0.05953-0.1323 0.13229-0.1323 0.07276 0 0.1323 0.0595 0.1323 0.1323s-0.0595 0.13229-0.1323 0.13229c-0.07276 0-0.13229-0.0595-0.13229-0.13229zm6.3626-0.41893c7e-3 -0.35167 0.72217-2.723 1.5894-5.2696 0.86723-2.5466 1.9629-5.8208 2.4348-7.276l0.85799-2.6458 0.14153-17.066 0.14154-17.066-9e-3 17.859-9e-3 17.859-1.2752 3.7042c-1.665 4.8364-3.6395 10.29-3.7761 10.429-0.0594 0.0606-0.10235-0.17749-0.0954-0.52917zm2.6332-0.23811c0-0.2241 0.57732-1.9442 2.1223-6.3232 0.46354-1.3139 0.64936-1.5928 0.83739-1.2568 0.1329 0.23749 0.41432 0.4318 0.62537 0.4318s0.38373 0.18851 0.38373 0.41892-0.14555 0.37041-0.32344 0.31111c-0.41443-0.13814-1.3586 1.6647-1.7654 3.371-0.50426 2.1148-1.8799 4.3446-1.8799 3.0471zm-7.1717-0.73203c-0.1537-0.40018-1.0276-2.9303-1.942-5.6224-0.91443-2.6921-1.8871-5.4901-2.1614-6.2177-0.56107-1.488-0.94547-127.66-0.38893-127.66 0.99259 0 1.9587 6.3406 1.6327 10.716-0.52456 7.0401-0.09004 18.845 0.7467 20.287 0.28094 0.484 0.64359 1.3844 0.80589 2.0008 0.1623 0.61643 0.58861 1.4375 0.94735 1.8246l0.65226 0.70379v29.579c0 19.434-0.0907 29.635-0.26458 29.743-0.14552 0.0899-0.26458-0.0816-0.26458-0.38126 0-1.8096-0.52282-0.1103-0.58539 1.9026-0.0832 2.6758-0.47162 3.2216-0.80036 1.1245-0.64088-4.0882-0.98644-3.0262-0.99146 3.0472-0.0086 10.385 1.43 25.029 2.5501 25.958 0.24135 0.20031 0.31327 0.5876 0.21067 1.1345-0.11123 0.59294-0.0108 1.0174 0.35127 1.4847 0.62332 0.80439 0.84354 1.9982 0.99925 5.4168l0.12051 2.6458-1.4458-3.9688c-1.5614-4.2862-2.298-7.1678-2.9368-11.489-0.77339-5.2323-1.3702-3.8877-0.93065 2.0965 0.23521 3.2018 0.41172 4.0414 1.7038 8.104 2.1489 6.7566 3.1715 10.645 1.9914 7.5726zm-0.24467-97.896c-6e-3 -1.5222-0.0775-1.9312-0.27772-1.5875-0.2408 0.41342-0.0745 3.638 0.18765 3.638 0.054 0 0.0945-0.92274 0.0901-2.0505zm1.8601 95.845c0-0.0728 0.0595-0.13229 0.13229-0.13229 0.0728 0 0.13229 0.0595 0.13229 0.13229 0 0.0728-0.0595 0.13229-0.13229 0.13229-0.0728 0-0.13229-0.0595-0.13229-0.13229zm-5.1594-0.92604c-0.09934-0.31297-0.12108-0.62858-0.04832-0.70134 0.07276-0.0728 0.21356 0.12378 0.3129 0.43676 0.09933 0.31297 0.12108 0.62857 0.04832 0.70133-0.07276 0.0728-0.21356-0.12377-0.3129-0.43675zm-1.7198-5.1594c0-0.0728 0.05953-0.1323 0.13229-0.1323 0.07276 0 0.13229 0.0595 0.13229 0.1323s-0.05953 0.13229-0.13229 0.13229c-0.07276 0-0.13229-0.0595-0.13229-0.13229zm15.62-0.46302c5e-3 -0.18191 0.17953-0.62839 0.3875-0.99219 0.41717-0.72976 0.5979-0.038 0.23628 0.9044-0.19077 0.49713-0.63716 0.55995-0.62378 0.0878zm-15.884-0.33073c0-0.0728 0.05953-0.1323 0.13229-0.1323 0.07276 0 0.13229 0.0595 0.13229 0.1323s-0.05953 0.13229-0.13229 0.13229c-0.07276 0-0.13229-0.0595-0.13229-0.13229zm-0.79375-2.3812c0-0.0728 0.05953-0.1323 0.13229-0.1323 0.07276 0 0.13229 0.0595 0.13229 0.1323s-0.05953 0.13229-0.13229 0.13229c-0.07276 0-0.13229-0.0595-0.13229-0.13229zm8.9502-1.7198c-0.26151-1.3607-0.32144-27.235-0.0637-27.495 0.33535-0.33805 0.37269 1.3827 0.31014 14.29-0.0377 7.772-0.14857 13.714-0.24646 13.205zm9.6464-26.591c2e-3 -0.7276 0.0534-0.99386 0.11418-0.59167 0.0608 0.40218 0.0592 0.99749-4e-3 1.3229-0.0628 0.32542-0.11256-4e-3 -0.11057-0.73124zm-0.0757-3.4396c0-0.99439 0.0799-1.7281 0.17752-1.6305 0.18904 0.18903 0.13488 3.126-0.0613 3.3222-0.0639 0.064-0.11626-0.69733-0.11626-1.6917zm-20.067-2.5135c0-0.36381 0.06005-0.51263 0.13345-0.33073 0.0734 0.1819 0.0734 0.47955 0 0.66146-0.0734 0.1819-0.13345 0.0331-0.13345-0.33073zm10.614-0.52917c0-0.65484 0.0516-0.92273 0.11467-0.59531 0.0631 0.32742 0.0631 0.8632 0 1.1906s-0.11467 0.0595-0.11467-0.59531zm6.9355-36.777c0-18.845 0.0315-26.554 0.07-17.132s0.0385 24.841 0 34.264-0.07 1.7132-0.07-17.132zm2.5175 33.338c0-0.19403 0.0794-0.27341 0.17639-0.17639 0.097 0.097 0.097 0.25576 0 0.35278-0.097 0.097-0.17639 0.0176-0.17639-0.17639zm-32.345-0.6805c-0.40018-0.21711-0.7276-0.45047-0.7276-0.51858 0-0.27703 0.50701-0.0935 1.0952 0.39652 0.74449 0.62022 0.62428 0.66014-0.36756 0.12206zm-18.719 0.019c0-0.0728 0.05953-0.13229 0.13229-0.13229 0.07276 0 0.13229 0.0595 0.13229 0.13229 0 0.0728-0.05953 0.13229-0.13229 0.13229-0.07276 0-0.13229-0.0595-0.13229-0.13229zm83.608-0.23219c0-0.0549 0.20836-0.2633 0.46302-0.46302 0.41964-0.32911 0.429-0.31975 0.0999 0.0999-0.34565 0.44073-0.56292 0.58088-0.56292 0.36312zm-84.931-1.0907c0-0.0728 0.05953-0.13229 0.13229-0.13229 0.07276 0 0.13229 0.0595 0.13229 0.13229 0 0.0728-0.05953 0.13229-0.13229 0.13229-0.07276 0-0.13229-0.0595-0.13229-0.13229zm-0.52917-0.92604c-0.15576-0.29104-0.22367-0.52917-0.15091-0.52917 0.07276 0 0.25973 0.23813 0.41549 0.52917 0.15576 0.29104 0.22367 0.52917 0.15091 0.52917-0.07276 0-0.25973-0.23813-0.41549-0.52917zm68.659 0c0.0899-0.14552 0.21602-0.26458 0.2802-0.26458 0.0642 0 0.11667 0.11906 0.11667 0.26458s-0.12609 0.26458-0.28019 0.26458c-0.15411 0-0.20662-0.11906-0.11668-0.26458zm-15.722-0.41892c0.0127-0.30823 0.0754-0.37092 0.15985-0.15986 0.0764 0.191 0.067 0.4192-0.0209 0.50712-0.0879 0.0879-0.15045-0.0683-0.13896-0.34726zm-37.318-2.4741c-0.33197-0.62029-0.34415-0.81115-0.05178-0.81115 0.12216 0 0.35774 0.29766 0.52349 0.66146 0.35417 0.77731-0.06469 0.91023-0.47172 0.14969zm27.719-0.21583c-0.16438-0.66141-0.0139-8.2892 0.16709-8.4702 0.083-0.083 0.15085 1.8931 0.15085 4.3912 0 4.3347-0.0607 5.1139-0.31794 4.079zm-10.481-4.0349c-0.0105-1.5408 0.04732-1.8588 0.25866-1.4225 0.18278 0.37731 0.18723 1.0291 0.01352 1.9844l-0.25866 1.4225zm20.101 0.79375c0-0.3638 0.06-0.51263 0.13345-0.33073 0.0734 0.1819 0.0734 0.47956 0 0.66146s-0.13345 0.0331-0.13345-0.33073zm-19.356-1.5875c0-0.7276-0.11906-1.3229-0.26458-1.3229-0.32955 0-0.35207-2.4479-0.02568-2.7914 0.1314-0.13824 0.29618-0.48948 0.36618-0.78052 0.07-0.29104 0.14109 0.98888 0.15797 2.8443s-0.02884 3.3734-0.1016 3.3734c-0.07276 0-0.13229-0.59532-0.13229-1.3229zm42.069-0.92604c0-0.0728 0.0595-0.13229 0.13229-0.13229 0.0728 0 0.13229 0.0595 0.13229 0.13229 0 0.0728-0.0595 0.13229-0.13229 0.13229-0.0728 0-0.13229-0.0595-0.13229-0.13229zm8.7918-0.71089c0.13184-0.39551 0.73318-0.61327 0.73318-0.26551 0 0.14208-0.18855 0.33068-0.41899 0.41911-0.25768 0.0989-0.37864 0.0397-0.31419-0.1536zm-6.6752-0.61203c0-0.0728 0.0595-0.13229 0.13229-0.13229 0.0728 0 0.1323 0.0595 0.1323 0.13229 0 0.0728-0.0595 0.13229-0.1323 0.13229s-0.13229-0.0595-0.13229-0.13229zm-25.014-1.0234c-0.27574-1.4698 0.089-2.1095 0.60178-1.0552 0.36415 0.74873 0.36326 0.89073-9e-3 1.422-0.41167 0.58775-0.41414 0.58622-0.59292-0.36677zm25.543 0.75882c0-0.0728 0.0595-0.13229 0.13229-0.13229 0.0728 0 0.13229 0.0595 0.13229 0.13229 0 0.0728-0.0595 0.13229-0.13229 0.13229-0.0728 0-0.13229-0.0595-0.13229-0.13229zm-78.714-0.51961c-0.64559-0.29561-0.69207-0.36747-0.24901-0.38494 0.29961-0.0118 0.77586 0.15331 1.0583 0.36697 0.64386 0.48699 0.23481 0.49607-0.80933 0.018zm81.095-0.2433c0-0.0558 0.29405-0.15766 0.65345-0.22636s0.5905-0.0231 0.51355 0.10145c-0.13548 0.21922-1.167 0.32964-1.167 0.12491zm4.1123-0.14485c-0.0837-0.13547-0.0312-0.32109 0.11668-0.41249 0.14789-0.0914 0.2689 0.0194 0.2689 0.2463 0 0.46475-0.15877 0.53318-0.38558 0.16619zm-91.425-0.67974c0-0.24254 0.12799-0.39831 0.28443-0.34616 0.15644 0.0521 0.28443 0.20791 0.28443 0.34616 0 0.13824-0.12799 0.29402-0.28443 0.34616-0.15643 0.0521-0.28443-0.10363-0.28443-0.34616zm97.124 0.30165c0.0606-0.0524 0.76509-0.16839 1.5654-0.25782 0.97212-0.10863 1.3235-0.0784 1.0583 0.0912-0.36004 0.23021-2.8829 0.39046-2.6238 0.16665zm-47.118-0.96311c0-0.19403 0.0794-0.2734 0.17639-0.17639 0.097 0.097 0.097 0.25577 0 0.35278-0.097 0.097-0.17639 0.0176-0.17639-0.17639zm42.069 0.13229c0-0.0728 0.0595-0.13229 0.13229-0.13229 0.0728 0 0.13229 0.0595 0.13229 0.13229 0 0.0728-0.0595 0.13229-0.13229 0.13229-0.0728 0-0.13229-0.0595-0.13229-0.13229zm-32.674-1.4451c-0.0947-0.431-0.0482-0.99655 0.10322-1.2568 0.21899-0.3763 0.27699-0.21593 0.28339 0.78364 9e-3 1.4349-0.13628 1.6129-0.38661 0.47313zm-19.14-0.57711c-0.02462-0.23909-0.22336-0.50325-0.44164-0.58701-0.4632-0.17775-0.56544-2.4148-0.12286-2.6883 0.62007-0.38323-0.13298-6.1086-0.905-6.8807-0.52467-0.52467-0.53578-0.76394-0.05403-1.1638 0.25521-0.2118 0.42757-0.22205 0.54478-0.0324 0.67641 1.0944 1.0579-0.44626 0.63607-2.5686-0.27114-1.3641-0.2765-1.769-0.02452-1.853 0.43092-0.14364 0.40908-0.72043-0.04142-1.0943-0.85863-0.7126-0.69087-3.9166 0.18742-3.5796 0.30207 0.11592 0.38942 1.6269 0.47769 8.2632 0.08818 6.6296-0.0674 14.021-0.25648 12.185zm56.973-4.4601c0.0899-0.14552 0.28259-0.26458 0.42811-0.26458s0.191 0.11906 0.10106 0.26458c-0.0899 0.14552-0.28258 0.26458-0.4281 0.26458s-0.191-0.11906-0.10107-0.26458zm1.7198-1.4552c0-0.0728 0.0595-0.13229 0.13229-0.13229 0.0728 0 0.13229 0.0595 0.13229 0.13229 0 0.0728-0.0595 0.13229-0.13229 0.13229-0.0728 0-0.13229-0.0595-0.13229-0.13229zm2.115-1.7066c0.50839-0.42145 0.97999-0.71064 1.048-0.64263 0.1576 0.15759-1.3549 1.4033-1.7078 1.4065-0.14552 1e-3 0.15138-0.34243 0.65977-0.76388zm-103.19-0.93924c0-0.0728 0.05953-0.13229 0.13229-0.13229 0.07276 0 0.13229 0.0595 0.13229 0.13229 0 0.0728-0.05953 0.13229-0.13229 0.13229-0.07276 0-0.13229-0.0595-0.13229-0.13229zm61.648-3.5719c0-0.19403 0.0794-0.27341 0.17639-0.17639 0.097 0.097 0.097 0.25576 0 0.35277-0.097 0.097-0.17639 0.0176-0.17639-0.17638zm-9.4734-5.9531c5e-3 -0.43656 0.0647-0.58312 0.13178-0.32569 0.0671 0.25743 0.0627 0.61462-0.01 0.79375-0.0725 0.17913-0.12736-0.0315-0.12197-0.46806zm-9.8412-5.6271c0-0.40278-0.29801-1.1709-0.66224-1.7069l-0.66224-0.97457 0.66224-0.97585c0.84389-1.2436 0.83594-1.8818-0.03272-2.6282-0.69788-0.59968-0.66943-1.1842 0.05764-1.1842 0.21438 0 0.49746-0.26789 0.62907-0.59532 0.15684-0.3902 0.24506 1.0228 0.25606 4.101 0.0092 2.583-0.04276 4.6964-0.11552 4.6964s-0.13229-0.32955-0.13229-0.73233zm19.381-0.98746c3e-3 -0.58209 0.0571-0.78906 0.12041-0.45994 0.0633 0.32912 0.0609 0.80537-5e-3 1.0583-0.0662 0.25297-0.118-0.0163-0.11507-0.59839zm-19.671-8.7245c-0.24882-0.53188-0.33192-1.0441-0.20249-1.2482 0.12073-0.19036 0.22315-0.76283 0.22761-1.2722 0.0045-0.50933 0.12352-1.1046 0.26458-1.3229 0.17531-0.27128 0.25776 0.41951 0.26053 2.1828 0.0022 1.4188-0.02571 2.5758-0.06209 2.5711-0.03638-5e-3 -0.25604-0.41453-0.48814-0.91066zm10.079-1.3297c0-0.0728 0.0595-0.13229 0.13229-0.13229 0.0728 0 0.1323 0.0595 0.1323 0.13229 0 0.0728-0.0595 0.13229-0.1323 0.13229s-0.13229-0.0595-0.13229-0.13229zm0.0209-2.4033c0.0127-0.30822 0.0754-0.37092 0.15985-0.15985 0.0764 0.191 0.067 0.4192-0.0209 0.50712-0.0879 0.0879-0.15045-0.0684-0.13896-0.34727zm9.5459-0.90399c0-0.3638 0.06-0.51263 0.13345-0.33073 0.0734 0.1819 0.0734 0.47956 0 0.66146s-0.13345 0.0331-0.13345-0.33073zm-9.525-2.6458c0-0.36381 0.0601-0.51263 0.13345-0.33073 0.0734 0.1819 0.0734 0.47955 0 0.66146-0.0734 0.1819-0.13345 0.0331-0.13345-0.33073zm0.01-4.101c5e-3 -0.43657 0.0647-0.58313 0.13178-0.3257 0.0671 0.25743 0.0627 0.61462-0.01 0.79375-0.0725 0.17913-0.12736-0.0315-0.12197-0.46805zm6.9465-18.124c0-5.0205 0.0356-7.0743 0.0791-4.5641 0.0435 2.5102 0.0435 6.6179 0 9.1281s-0.0791 0.45641-0.0791-4.5641zm-7.2627 0.79375c0-0.19403 0.0794-0.2734 0.17639-0.17639 0.097 0.097 0.097 0.25576 0 0.35278-0.097 0.097-0.17639 0.0176-0.17639-0.17639zm-4.2333-0.79375c0-0.19403 0.07937-0.2734 0.17639-0.17639 0.097 0.097 0.097 0.25576 0 0.35278-0.09701 0.097-0.17639 0.0176-0.17639-0.17639zm-0.26458-0.79375c0-0.19403 0.07937-0.2734 0.17639-0.17639 0.09701 0.097 0.09701 0.25576 0 0.35278-0.09701 0.097-0.17639 0.0176-0.17639-0.17639zm4.6964-1.6906c-0.29888-1.9485-0.25551-4.0286 0.0771-3.696 0.16218 0.16218 0.2438 1.245 0.19843 2.6326-0.0707 2.1618-0.0935 2.2499-0.27549 1.0634zm-9.9219-1.209c-0.1819-0.58347-0.33073-1.4199-0.33073-1.8588 0-0.89008-0.06117-0.92943-0.76326-0.49097-0.58868 0.36764-2.1907-0.18031-3.8669-1.3226-0.58208-0.39668-1.4155-0.89597-1.8521-1.1096-0.43656-0.21358-1.0052-0.64918-1.2637-0.968-0.25846-0.31882-0.69209-0.65018-0.96362-0.73636-0.27153-0.0862-0.55362-0.38583-0.62685-0.66589-0.07324-0.28005-0.62187-0.72091-1.2192-0.97969s-1.086-0.56148-1.086-0.67267c0-0.1112-0.41672-0.20217-0.92604-0.20217s-0.92604 0.11906-0.92604 0.26458c0 0.36023-1.1458 0.33583-1.5139-0.0322-0.16325-0.16325-0.23798-0.45016-0.16606-0.63758 0.07192-0.18741-0.06664-0.72249-0.30792-1.1891l-0.43868-0.8483 1.0148 0.78598c2.1601 1.673 3.9328 1.7775 6.2037 0.36585 0.71139-0.44222 1.2934-0.6899 1.2934-0.55039s0.15096 0.25366 0.33546 0.25366c1.6045 0 3.1333 2.2877 1.9925 2.9815-1.3731 0.83501-0.63749 2.6073 0.91992 2.2164 0.37615-0.0944 0.8658-0.35355 1.0881-0.57586 0.36256-0.36256 0.44939-0.33526 0.84268 0.26498 0.24116 0.36805 0.66483 0.66919 0.94149 0.66919 0.31437 0 0.66863 0.34729 0.94462 0.92604 0.50692 1.063 0.85786 1.1911 0.90623 0.33073 0.01841-0.32742 0.13648 0.20419 0.26237 1.1814 0.1259 0.97717 0.1406 2.2006 0.03268 2.7187l-0.19622 0.94197zm19.357-1.4661c-0.48679-1.9395 2.6058-4.9015 4.3078-4.126 1.0249 0.46698 1.6548 0.34552 1.9868-0.38312 0.36301-0.79673-0.32665-1.7023-1.3555-1.7798-0.58695-0.0442-0.58361-0.0588 0.15264-0.6654 0.414-0.34112 1.1583-0.96977 1.6541-1.397 0.49575-0.42725 1.0018-0.77681 1.1245-0.77681 0.12271 0 0.22311-0.1786 0.22311-0.39688 0-0.54117 0.1124-0.51044 1.3125 0.35895 1.7864 1.294 3.1816 1.537 4.9471 0.86136 1.5967-0.61101 2.0712-0.6042 1.0908 0.0156-0.76884 0.48609-2.5616 1.0008-3.2494 0.93294-0.38918-0.0384-0.55018 0.12855-0.60862 0.63115-0.0532 0.45729-0.51274 1.0138-1.3891 1.6821-0.72028 0.5493-1.3096 1.1645-1.3096 1.3671 0 0.20262-0.11906 0.36841-0.26458 0.36841s-0.26459-0.11906-0.26459-0.26458c0-0.63573-0.70712-0.24869-3.0212 1.6536-0.4868 0.40019-1.048 0.72827-1.247 0.72908-0.84743 3e-3 -2.2689 0.56859-2.9828 1.1859-0.93969 0.81252-0.90389 0.81241-1.107 3e-3zm-81.6-0.56772c-0.41121-0.21791-1.6124-0.35353-3.175-0.35847-2.7471-9e-3 -3.3602-0.20218-3.0586-0.96533 0.10644-0.26935 0.23381-0.79043 0.28305-1.158 0.20694-1.5446 0.97441-5.1924 1.1954-5.6818 0.13143-0.29104 0.49133-1.3031 0.79977-2.249 1.2985-3.9821 2.0369-4.6109 5.3996-4.598 4.2219 0.0162 7.9126 2.1826 9.6702 5.6762 1.0677 2.1224 1.8237 2.6059 2.3976 1.5334 0.25351-0.47368 0.14176-0.87799-0.70222-2.5408l-1.0037-1.9775 0.64539-0.496c6.5091-5.0024 17.829 1.2229 17.84 9.8109l0.0032 2.5135-14.288 0.13229c-9.5655 0.0886-14.462 0.22757-14.817 0.42057-0.39468 0.21501-0.69728 0.19919-1.1906-0.0622zm132.17 0.0301c-0.42726-0.32316-1.9676-0.38846-9.1642-0.38846h-8.6506l-0.12584-0.85737c-1.247-8.4963 8.4407-15.899 16.266-12.43 1.8795 0.83328 1.9603 1.0831 1.0006 3.094-1.2118 2.539-0.31527 4.6499 0.94211 2.2184 1.8519-3.5812 4.2095-5.6706 7.3907-6.5499 1.4775-0.4084 1.7778-0.65584 1.6753-1.3805-0.17942-1.269-3.6316-0.59501-6.2785 1.2258l-1.288 0.88597-2.2063-1.1c-6.1982-3.0903-15.122 0.0785-18.421 6.5414l-0.53144 1.0409-0.35192-0.64405c-0.60957-1.1156-0.47011-6.8868 0.21835-9.0359 2.7972-8.7315 12.325-13.629 21.494-11.05 4.5719 1.2864 9.525 5.7702 9.525 8.6226 0 0.36945 0.26735 0.79525 0.66146 1.0535 0.89443 0.58605 0.85377 1.1663-0.0817 1.1663-1.1018 0-1.6997 0.54664-1.5946 1.4579 0.0935 0.811 0.0672 0.79931 2.928 1.3014 1.2641 0.22185 2.428 1.824 2.6756 3.6831 0.10369 0.77864 0.42382 1.5836 0.8144 2.0478 0.4437 0.52731 0.6966 1.2381 0.81439 2.2889 0.094 0.83825 0.34082 2.0513 0.54855 2.6957 0.20773 0.64439 0.3777 1.4216 0.3777 1.7271s0.17608 0.80684 0.39128 1.1141c0.58553 0.83596 0.20108 0.87415-8.858 0.88004-6.6363 4e-3 -8.2044 0.0755-8.8276 0.40049-0.41681 0.21738-0.774 0.39145-0.79375 0.38683-0.0197-5e-3 -0.26702-0.18323-0.54949-0.39688zm-99.626-0.6488c-0.50113-0.3112 0.25765-1.4172 1.6068-2.3422 1.1736-0.80461 4.0305-0.74194 5.1764 0.11356 0.97365 0.72694 1.7802 1.8458 1.5727 2.1816-0.21384 0.346-7.8057 0.38882-8.3559 0.0471zm71.613 0.0425c-1.4711-0.28262 1.1956-2.6131 3.4918-3.0515 1.803-0.34425 4.4136 1.0661 4.5826 2.4756l0.0793 0.66146h-3.8542c-2.1198 0-4.0546-0.0385-4.2995-0.0855zm-34.567-4.1373c-0.33528-0.35689-1.0806-0.97531-1.6563-1.3743-0.96306-0.66739-1.0091-0.75291-0.5756-1.0699 0.55624-0.40673 0.99839-0.45454 0.76884-0.0831-0.0888 0.14374 0.3984 0.85995 1.0827 1.5916 0.68435 0.73162 1.187 1.3874 1.1171 1.4574-0.07 0.0699-0.40149-0.16483-0.73677-0.52172zm0.90683-2.2889c-0.24993-0.78744 0.44432-1.4883 0.91384-0.92252 0.39278 0.47327 0.13739 1.4812-0.37531 1.4812-0.19867 0-0.44101-0.25141-0.53853-0.55867zm-39.546-2.0119c-2.3319-3.453-5.9633-6.2512-9.2099-7.0969-3.7618-0.97984-8.1454-0.25037-10.695 1.7798l-0.72284 0.57552-1.0698-0.85969c-1.5768-1.2672-3.2261-1.9026-6.2929-2.4247-3.0136-0.51298-3.19-0.58829-2.7159-1.1595 0.17878-0.21542 0.25659-0.50246 0.17291-0.63787-0.08369-0.13541 0.02513-0.39333 0.2418-0.57316 0.21668-0.17982 0.39396-0.55893 0.39396-0.84246 0-2.3055 5.689-7.0518 9.9162-8.2731 12.018-3.4722 24.683 8.1188 21.309 19.503-0.36498 1.2316-0.50126 1.2326-1.3275 9e-3zm34.022-0.74416c0.22072-2.2389 0.15448-2.1552 1.0488-1.3264 0.82461 0.76422 0.6838 1.3724-0.59608 2.5748l-0.63456 0.59614zm33.065 1.2215c-0.20645-0.33405 0.70445-1.8718 1.11-1.8738 0.40107-2e-3 0.43305 0.90026 0.0568 1.6032-0.28719 0.53662-0.91277 0.68171-1.1668 0.27061zm-52.64-1.505c-0.09416-0.24538-0.11167-0.50568-0.03891-0.57844 0.07276-0.0728 0.20933 0.0685 0.3035 0.31386 0.09416 0.24538 0.11168 0.50569 0.03891 0.57845-0.07276 0.0728-0.20934-0.0685-0.3035-0.31387zm9.6308-0.20689c0-0.21828 0.11906-0.47046 0.26458-0.5604 0.14552-0.0899 0.26458 0.0151 0.26458 0.23335 0 0.21829-0.11906 0.47046-0.26458 0.5604-0.14552 0.0899-0.26458-0.0151-0.26458-0.23335zm38.453 0.18925c0.097-0.097 0.25577-0.097 0.35278 0 0.097 0.097 0.0176 0.17639-0.17639 0.17639-0.19403 0-0.2734-0.0794-0.17639-0.17639zm-45.364-1.0532c-2.8408-3.423 3.1764-8.0426 12.203-9.3686 3.8811-0.57014 6.2225-2.2158 6.9332-4.8731l0.32026-1.1974h1.4003c1.6867 0 1.6736-0.15957 0.16786 2.0378-1.9881 2.9014-3.4499 4.2728-5.0514 4.739-2.1405 0.62319-1.6068 1.2395 1.377 1.5902 1.6878 0.19837 1.724 0.22134 2.3816 1.5125 0.3981 0.78155 0.91707 1.2212 2.249 1.9052 1.7304 0.88869 1.7309 0.88921 0.76585 0.90222-0.67568 9e-3 -1.3509-0.25166-2.249-0.86852-0.70585-0.48484-1.917-1.316-2.6915-1.847-0.77447-0.53102-1.9056-1.0913-2.5135-1.245-0.60798-0.15374-1.7007-0.47013-2.4283-0.70308-3.9477-1.2639-11.245 1.5367-11.245 4.3158 0 0.38486-0.16723 0.5293-0.59531 0.51419-0.55416-0.0195-0.59319 0.0842-0.56462 1.5004 0.03433 1.7019 0.04018 1.6881-0.45994 1.0855zm2.1466-0.75766c-0.27209-0.32784-0.23272-0.39396 0.2346-0.39396 0.30886 0 0.56156 0.11204 0.56156 0.24897 0 0.45838-0.46569 0.54319-0.79617 0.14499zm43.216-0.28664c-0.21001-0.54729 0.60217-1.377 0.97902-1.0001 0.15134 0.15133 0.20251 0.46445 0.11373 0.69581-0.23139 0.60299-0.90604 0.79087-1.0928 0.30431zm-38.186-1.4302c0-0.19403 0.07937-0.27341 0.17639-0.17639 0.09701 0.097 0.09701 0.25576 0 0.35277-0.09701 0.097-0.17639 0.0176-0.17639-0.17638zm7.0115-1.5875c-0.08994-0.14553-0.03743-0.26459 0.11668-0.26459 0.15411 0 0.2802 0.11906 0.2802 0.26459 0 0.14552-0.0525 0.26458-0.11668 0.26458-0.06417 0-0.19026-0.11906-0.2802-0.26458zm8.2256-2.9307c-1.4857-1.7657 0.12442-6.297 1.7234-4.85 1.3611 1.2318 1.6956 2.8203 0.54539 2.5903-1.3826-0.27652-1.9596 0.93528-1.243 2.6107 0.31789 0.7433-0.27586 0.5401-1.0257-0.35103zm-16.825-3.5516c0-0.07276 0.05953-0.13229 0.13229-0.13229 0.07276 0 0.13229 0.05953 0.13229 0.13229 0 0.07276-0.05953 0.13229-0.13229 0.13229-0.07276 0-0.13229-0.05953-0.13229-0.13229zm31.618-1.1906c-0.47251-0.20304-0.45293-0.22938 0.18282-0.24599 0.39159-0.01023 0.78557 0.10047 0.87551 0.24599 0.19522 0.31587-0.32326 0.31587-1.0583 0zm-25.053-0.44532c0.191-0.07643 0.4192-0.06703 0.50712 0.02089 0.08792 0.08792-0.06835 0.15045-0.34727 0.13896-0.30822-0.0127-0.37092-0.07539-0.15985-0.15985zm19.736-1.4476c-0.11696-0.18926-0.0726-0.23364 0.11668-0.11668 0.16801 0.10383 0.30546 0.24129 0.30546 0.30546 0 0.2207-0.23364 0.11621-0.42214-0.18879zm-14.924-1.5466c0-0.19403 0.07937-0.2734 0.17639-0.17639 0.09701 0.09701 0.09701 0.25576 0 0.35278-0.09701 0.09701-0.17639 0.01764-0.17639-0.17639zm15.169 0.08819c0.097-0.09701 0.25576-0.09701 0.35277 0 0.097 0.09701 0.0176 0.17639-0.17639 0.17639-0.19402 0-0.2734-0.07937-0.17638-0.17639zm-12.259-5.3706c0-0.35888 0.68603-0.68686 3.0524-1.4593 2.6978-0.88065 2.807-0.68091 0.2024 0.37017-1.1353 0.45815-2.271 0.94808-2.5237 1.0887-0.57797 0.3217-0.73119 0.3218-0.73119 4.49e-4zm5.5562-2.2583c0-0.07276 0.0595-0.13229 0.13229-0.13229 0.0728 0 0.13229 0.05953 0.13229 0.13229 0 0.07276-0.0595 0.13229-0.13229 0.13229-0.0728 0-0.13229-0.05953-0.13229-0.13229zm-5.2917-1.4175c0-1.2557 0.51023-1.7781 0.56886-0.58244 0.0218 0.44515 0.0516 0.94827 0.0661 1.118s-0.12237 0.35829-0.30427 0.41892c-0.22806 0.07602-0.33073-0.2203-0.33073-0.95452zm-0.12571-2.6729c-0.23831-0.38559 4.182-2.128 4.526-1.784 0.0732 0.07322-0.32135 0.2803-0.8768 0.46019-0.55545 0.17989-1.5692 0.60729-2.2527 0.94978-0.69815 0.34981-1.3101 0.51373-1.3965 0.37403zm0.3903-4.5086c0-0.19403 0.0794-0.2734 0.17638-0.17639 0.097 0.09701 0.097 0.25576 0 0.35278-0.097 0.09701-0.17638 0.01764-0.17638-0.17639zm-0.26459-2.1074c0-0.3676 1.0074-0.85338 1.5352-0.74033 0.33515 0.07177 0.23423 0.21034-0.3976 0.5459-0.97627 0.5185-1.1376 0.54607-1.1376 0.19444zm3.0015-1.363c0.55944-0.29513 1.0765-0.47724 1.1491-0.40469 0.16768 0.16768-1.3638 0.96858-1.8224 0.95299-0.18913-0.0064 0.11385-0.25316 0.67328-0.5483zm-2.9921-5.0892c0.46446-0.42857 5.2419-2.1523 5.4336-1.9605 0.1635 0.16351-4.8887 2.3193-5.4336 2.3185-0.34018-4.65e-4 -0.34018-0.04413 0-0.35802zm-9e-3 -2.4206c0-0.07276 0.0595-0.13229 0.13229-0.13229 0.0728 0 0.1323 0.05953 0.1323 0.13229 0 0.07276-0.0595 0.13229-0.1323 0.13229s-0.13229-0.05953-0.13229-0.13229zm1.0583-0.52917c0-0.07276 0.0595-0.13229 0.13229-0.13229 0.0728 0 0.13229 0.05953 0.13229 0.13229 0 0.07276-0.0595 0.13229-0.13229 0.13229-0.0728 0-0.13229-0.05953-0.13229-0.13229zm-0.92605-0.66146c0.0899-0.14552 0.21603-0.26458 0.2802-0.26458 0.0642 0 0.11668 0.11906 0.11668 0.26458s-0.12609 0.26458-0.2802 0.26458-0.20661-0.11906-0.11668-0.26458zm-0.13229-2.626c0-0.24738 4.2098-1.7191 4.3931-1.5358 0.10435 0.10436-3.8534 1.7864-4.1946 1.7827-0.10914-0.0012-0.19844-0.11228-0.19844-0.24689zm0-3.3115c0-1.2969 0.29097-1.6798 0.80548-1.0598 0.2547 0.3069 0.26197 0.47947 0.03 0.71146-0.43928 0.43928-0.3779 0.72832 0.15673 0.73804 0.41896 0.0076 0.41414 0.04538-0.0506 0.39688-0.79551 0.6017-0.94162 0.47965-0.94162-0.78655zm0-2.8837c0-0.40424 1.8702-1.1009 2.4168-0.90027 0.20598 0.0756-0.18842 0.37385-0.91738 0.69371-1.5097 0.66246-1.4994 0.66104-1.4994 0.20656zm-0.0492-3.1256c-0.11432-1.1987-0.0817-1.2671 0.52764-1.1077 0.91939 0.24043 1.0954 1.2788 0.29461 1.7383l-0.72257 0.4147zm-2.5966-1.1501c0-0.07276 0.05953-0.13229 0.13229-0.13229 0.07276 0 0.13229 0.05953 0.13229 0.13229 0 0.07276-0.05953 0.13229-0.13229 0.13229-0.07276 0-0.13229-0.05953-0.13229-0.13229zm12.965 0c0-0.07276 0.0595-0.13229 0.13229-0.13229 0.0728 0 0.13229 0.05953 0.13229 0.13229 0 0.07276-0.0595 0.13229-0.13229 0.13229-0.0728 0-0.13229-0.05953-0.13229-0.13229zm-12.2-3.3608c-0.18272-0.34141-0.04738-0.65026 0.55496-1.2664 0.43814-0.44821 0.79661-1.0886 0.79661-1.4232s0.07463-0.68286 0.16584-0.77408c0.15617-0.15616 1.6862 0.50102 1.6862 0.72426 0 0.05712 0.0723 0.29219 0.1606 0.52237 0.1132 0.29499 6e-3 0.41852-0.36448 0.41852-0.61906 0-1.238 0.65182-0.99391 1.0467 0.0939 0.1519 0.78874 0.28454 1.5441 0.29477 1.3227 0.01791 2.9099 0.42103 2.0349 0.51683-3.5232 0.38574-5.357 0.3661-5.5849-0.0598zm-2.3579-5.906c-0.51127-0.61605-0.14646-0.73214 0.40071-0.12752 0.2642 0.29193 0.35742 0.53079 0.20716 0.53079-0.15026 0-0.4238-0.18147-0.60788-0.40327zm1.2421-2.8379c-3.4934-4.6778 0.14599-12.169 5.874-12.092 0.95735 0.01299 0.95611 0.01447-0.76087 0.90383-4.3453 2.2508-6.4049 6.8533-4.6313 10.349 0.98659 1.9447 0.70724 2.4308-0.48185 0.83859zm-3.1771-0.11024c-0.09701-0.09701-0.17639-0.29942-0.17639-0.44979 0-0.16579 0.12324-0.15017 0.31309 0.03969 0.1722 0.1722 0.25157 0.3746 0.17639 0.44979-0.07519 0.07519-0.21608 0.05733-0.31309-0.03969zm6.3209-1.2127c-0.0554-0.1819-0.23023-0.73545-0.38857-1.2301-0.7845-2.4508-6e-3 -4.2256 2.0896-4.7626 2.1319-0.54638 2.9426 0.49447 1.1903 1.5283-1.1112 0.65565-1.5461 1.6004-1.18 2.5634 0.39187 1.0307 0.31272 1.438-0.27943 1.438-0.29561 0-0.60601 0.17859-0.68977 0.39688-0.18502 0.48217-0.60411 0.51952-0.74214 0.06615zm-6.4973-6.2839c0-0.19403 0.07937-0.2734 0.17639-0.17639 0.09701 0.09701 0.09701 0.25576 0 0.35278-0.09701 0.09701-0.17639 0.01764-0.17639-0.17639zm13.229-6.4127-0.66146-0.2937 0.62917-0.10924c0.35213-0.06114 0.81398 0.07557 1.0489 0.31047 0.51475 0.51474 0.0331 0.55856-1.0166 0.09247z" fill="#f8e696"/><path d="m103.58 266.57c-0.74191-1.6152-4.3726-11.535-6.2165-16.985l-1.963-5.8022-0.16374-28.128c-0.09005-15.471-0.06611-28.962 0.05322-29.98 0.13832-1.1808 0.18657 0.92891 0.13313 5.8208-0.04611 4.2201 0.01924 17.853 0.14522 30.295l0.22905 22.622 2.6619 7.5406c6.2148 17.605 5.574 16.889 8.2908 9.2604 0.59596-1.6735 1.5621-4.3524 2.147-5.9531s1.3976-3.9224 1.806-5.1594c0.40843-1.2369 1.1125-3.1618 1.5645-4.2774l0.82194-2.0285v-22.82c0-12.551 0.0711-22.749 0.15799-22.662 0.0869 0.0869 0.15059 10.34 0.14155 22.785l-0.0164 22.627-0.92619 2.4729c-0.50941 1.3601-1.2699 3.4794-1.6899 4.7095-1.2671 3.7108-2.8376 8.1008-4.3945 12.284-0.81101 2.1792-1.4746 3.9949-1.4746 4.0349 0 0.42836-1.0521-0.0985-1.3076-0.65481zm-0.63947-6.0689c-0.23635-0.23496-0.96905-1.8982-0.95396-2.1655 5e-3 -0.0914 0.17953 0.13153 0.3875 0.49533 0.34088 0.59632 0.38139 0.60935 0.41136 0.1323 0.0213-0.33987 0.12432-0.21282 0.28786 0.35517 0.27612 0.95903 0.21249 1.5259-0.13276 1.1827zm2.6577-0.0165c-0.0629-0.10914-0.0253-0.73422 0.0836-1.3891 0.16187-0.97354 0.20792-1.0459 0.25257-0.39688l0.0546 0.79375 0.38676-0.79375c0.38075-0.78142 0.38449-0.78262 0.24098-0.0778-0.31336 1.539-0.7476 2.3336-1.0185 1.8638zm-3.0918-2.4474c0-0.19402 0.0794-0.2734 0.17639-0.17638 0.097 0.097 0.097 0.25576 0 0.35277-0.097 0.097-0.17639 0.0176-0.17639-0.17639zm-1.1609-1.2234c-0.23465-0.68866-0.41793-1.3797-0.4073-1.5357 0.0106-0.15598 0.24838 0.36171 0.52833 1.1504 0.27995 0.7887 0.46323 1.4798 0.4073 1.5357-0.0559 0.0559-0.29368-0.46175-0.52833-1.1504zm2.2451 0.1256c-0.35642-1.0224-0.35845-1.0921-0.0259-0.88656 0.75879 0.46896 0.078-8.5698-0.79716-10.583l-0.57497-1.3229 0.0369-36.37c0.0203-20.004 0.0917-36.425 0.15865-36.492 0.067-0.067 0.11855 16.271 0.11458 36.306l-7e-3 36.428 0.85408 1.9166c0.84747 1.9017 0.85484 1.955 0.95212 6.8775 0.0974 4.93-0.0775 5.9452-0.71107 4.1277zm2.3763 0.41431c0.0127-0.30823 0.0754-0.37092 0.15985-0.15986 0.0764 0.191 0.067 0.4192-0.0209 0.50712-0.0879 0.0879-0.15045-0.0684-0.13896-0.34726zm0.77286 0.15434c0-0.19403 0.0794-0.27341 0.17639-0.17639 0.097 0.097 0.097 0.25576 0 0.35278-0.097 0.097-0.17639 0.0176-0.17639-0.17639zm-4.4979-0.26459c0-0.19402 0.0794-0.2734 0.17638-0.17638 0.097 0.097 0.097 0.25576 0 0.35277-0.097 0.097-0.17638 0.0176-0.17638-0.17639zm4.7625-0.52916c0-0.19403 0.0794-0.27341 0.17639-0.17639 0.097 0.097 0.097 0.25576 0 0.35278-0.097 0.097-0.17639 0.0176-0.17639-0.17639zm-5.0271-0.26459c0-0.19402 0.0794-0.2734 0.17639-0.17638 0.097 0.097 0.097 0.25576 0 0.35277-0.097 0.097-0.17639 0.0176-0.17639-0.17639zm4.2333 0c0-0.19402 0.0794-0.2734 0.17639-0.17638 0.097 0.097 0.097 0.25576 0 0.35277-0.097 0.097-0.17639 0.0176-0.17639-0.17639zm1.1124-0.52916c0.80421-2.3057 1.3629-3.6982 1.4493-3.6119 0.12229 0.12229-1.1735 3.6445-1.4208 3.862-0.0918 0.0807-0.10455-0.0319-0.0284-0.25014zm-5.6104-0.26459c0-0.19402 0.0794-0.2734 0.17639-0.17638 0.097 0.097 0.097 0.25576 0 0.35277-0.097 0.097-0.17639 0.0176-0.17639-0.17639zm4.7625 0c0-0.19402 0.0794-0.2734 0.17639-0.17638 0.097 0.097 0.097 0.25576 0 0.35277-0.097 0.097-0.17639 0.0176-0.17639-0.17639zm-3.4396-0.26458c0-0.19403 0.0794-0.2734 0.17638-0.17639 0.097 0.097 0.097 0.25577 0 0.35278-0.097 0.097-0.17638 0.0176-0.17638-0.17639zm-1.5875-0.52917c0-0.19402 0.0794-0.2734 0.17638-0.17638 0.097 0.097 0.097 0.25576 0 0.35277-0.097 0.097-0.17638 0.0176-0.17638-0.17639zm5.2917 0c0-0.19402 0.0794-0.2734 0.17639-0.17638 0.097 0.097 0.097 0.25576 0 0.35277-0.097 0.097-0.17639 0.0176-0.17639-0.17639zm-6.0854-0.26458c0-0.19403 0.0794-0.2734 0.17638-0.17639 0.097 0.097 0.097 0.25577 0 0.35278-0.097 0.097-0.17638 0.0176-0.17638-0.17639zm2.1167 0c0-0.19403 0.0794-0.2734 0.17639-0.17639 0.097 0.097 0.097 0.25577 0 0.35278-0.097 0.097-0.17639 0.0176-0.17639-0.17639zm-1.5875-0.52917c0-0.19402 0.0794-0.2734 0.17639-0.17638 0.097 0.097 0.097 0.25576 0 0.35277-0.097 0.097-0.17639 0.0176-0.17639-0.17639zm5.8208 0c0-0.19402 0.0794-0.2734 0.17639-0.17638 0.097 0.097 0.097 0.25576 0 0.35277-0.097 0.097-0.17639 0.0176-0.17639-0.17639zm-6.6146-0.26458c0-0.19403 0.0794-0.2734 0.17639-0.17639 0.097 0.097 0.097 0.25577 0 0.35278-0.097 0.097-0.17639 0.0176-0.17639-0.17639zm1.5153-1.9122c-0.38922-1.1873-0.66356-2.2028-0.60966-2.2567 0.0539-0.0539 0.42026 0.86959 0.81411 2.0522 0.39385 1.1826 0.6682 2.1981 0.60966 2.2567-0.0585 0.0585-0.42489-0.86496-0.81411-2.0522zm5.3638 1.383c0-0.19402 0.0794-0.2734 0.17639-0.17638 0.097 0.097 0.097 0.25576 0 0.35277-0.097 0.097-0.17639 0.0176-0.17639-0.17639zm-7.2434-0.4071c-0.25532-0.66535-0.18-0.83702 0.13191-0.30066 0.15443 0.26558 0.22505 0.53861 0.15693 0.60673-0.0681 0.0681-0.1981-0.0696-0.28884-0.30607zm0.89336 0.14252c0-0.19403 0.0794-0.2734 0.17639-0.17639 0.097 0.097 0.097 0.25577 0 0.35278-0.097 0.097-0.17639 0.0176-0.17639-0.17639zm6.6372-0.52917c-8e-3 -0.21828 0.10087-0.57546 0.24193-0.79375 0.31256-0.48364 0.31256-0.0659 0 0.66146-0.14993 0.34892-0.23234 0.39398-0.24193 0.13229zm-6.9018-0.26458c0-0.19403 0.0794-0.2734 0.17638-0.17639 0.097 0.097 0.097 0.25577 0 0.35278-0.097 0.097-0.17638 0.0176-0.17638-0.17639zm-1.0583-0.52917c0-0.19402 0.07937-0.2734 0.17639-0.17638 0.09701 0.097 0.09701 0.25576 0 0.35277-0.09701 0.097-0.17639 0.0176-0.17639-0.17639zm9.2813-0.15434c0.0127-0.30822 0.0754-0.37091 0.15985-0.15985 0.0764 0.191 0.067 0.4192-0.0209 0.50712-0.0879 0.0879-0.15045-0.0683-0.13896-0.34727zm-8.4876-0.11024c0-0.19403 0.0794-0.2734 0.17639-0.17639 0.097 0.097 0.097 0.25577 0 0.35278-0.097 0.097-0.17639 0.0176-0.17639-0.17639zm-1.0583-0.52917c0-0.19402 0.07937-0.2734 0.17639-0.17638 0.09701 0.097 0.09701 0.25576 0 0.35277-0.09701 0.097-0.17639 0.0176-0.17639-0.17639zm8.7313 0c0-0.19402 0.0794-0.2734 0.17639-0.17638 0.097 0.097 0.097 0.25576 0 0.35277-0.097 0.097-0.17639 0.0176-0.17639-0.17639zm-7.9166-0.41892c0.0127-0.30822 0.0754-0.37092 0.15985-0.15985 0.0764 0.19099 0.067 0.4192-0.0209 0.50712-0.0879 0.0879-0.15045-0.0684-0.13896-0.34727zm9.1427-0.11024c0.0892-0.3638 0.32492-1.0186 0.52371-1.4552 0.29029-0.63749 0.3295-0.66353 0.19917-0.13229-0.0893 0.3638-0.32493 1.0186-0.52372 1.4552-0.29028 0.63749-0.32949 0.66353-0.19916 0.13229zm-10.222-0.26459c0-0.19402 0.07937-0.2734 0.17639-0.17638 0.09701 0.097 0.09701 0.25576 0 0.35277-0.09701 0.097-0.17639 0.0176-0.17639-0.17639zm9.2604 0c0-0.19402 0.0794-0.2734 0.17639-0.17638 0.097 0.097 0.097 0.25576 0 0.35277-0.097 0.097-0.17639 0.0176-0.17639-0.17639zm-8.4667-0.52916c0-0.19403 0.07937-0.2734 0.17639-0.17639 0.097 0.097 0.097 0.25576 0 0.35278-0.09701 0.097-0.17639 0.0176-0.17639-0.17639zm-1.0583-0.26459c0-0.19402 0.07937-0.2734 0.17639-0.17638 0.09701 0.097 0.09701 0.25576 0 0.35277-0.09701 0.097-0.17639 0.0176-0.17639-0.17639zm9.7896 0c0-0.19402 0.0794-0.2734 0.17639-0.17638 0.097 0.097 0.097 0.25576 0 0.35277-0.097 0.097-0.17639 0.0176-0.17639-0.17639zm-7.6729-0.26458c0-0.19403 0.0794-0.2734 0.17639-0.17639 0.097 0.097 0.097 0.25577 0 0.35278-0.097 0.097-0.17639 0.0176-0.17639-0.17639zm-1.4225-0.4071c-0.25532-0.66535-0.18-0.83703 0.1319-0.30066 0.15444 0.26558 0.22506 0.5386 0.15693 0.60673-0.06812 0.0681-0.1981-0.0696-0.28884-0.30607zm-0.95873-0.12207c0-0.19402 0.07937-0.2734 0.17639-0.17638 0.09701 0.097 0.09701 0.25576 0 0.35277-0.09701 0.097-0.17639 0.0176-0.17639-0.17639zm10.36 0.1323c-7.5e-4 -0.14552 0.15911-0.68131 0.35525-1.1906s0.36031-0.74745 0.36482-0.52917c4e-3 0.21829-0.15536 0.75407-0.35526 1.1906s-0.36407 0.67469-0.36481 0.52917zm-8.2228-0.55122c0.0127-0.30822 0.0754-0.37092 0.15986-0.15985 0.0764 0.19099 0.067 0.4192-0.0209 0.50712-0.0879 0.0879-0.15046-0.0684-0.13897-0.34727zm-2.4021-0.37483c0-0.19402 0.07937-0.2734 0.17639-0.17638 0.09701 0.097 0.09701 0.25576 0 0.35277-0.09701 0.097-0.17639 0.0176-0.17639-0.17639zm11.911 0.19844c0.0265-0.34982 1.2803-3.9591 1.2964-3.732 0.0288 0.40521-1.0251 3.7982-1.1797 3.7982-0.0669 0-0.11941-0.0298-0.11665-0.0661zm-11.097-0.61736c0.01269-0.30822 0.07539-0.37092 0.15985-0.15985 0.07643 0.19099 0.06703 0.4192-0.02089 0.50712-0.08792 0.0879-0.15045-0.0683-0.13896-0.34727zm1.302-0.11024c0-0.19403 0.0794-0.2734 0.17639-0.17639 0.097 0.097 0.097 0.25576 0 0.35278-0.097 0.097-0.17639 0.0176-0.17639-0.17639zm-2.3813-0.26459c0-0.19402 0.07937-0.2734 0.17639-0.17638 0.09701 0.097 0.09701 0.25576 0 0.35277-0.09701 0.097-0.17639 0.0176-0.17639-0.17639zm0.79375-0.52916c0-0.19403 0.07937-0.2734 0.17639-0.17639 0.09701 0.097 0.09701 0.25576 0 0.35278-0.09701 0.097-0.17639 0.0176-0.17639-0.17639zm1.3229 0c0-0.19403 0.0794-0.2734 0.17639-0.17639 0.097 0.097 0.097 0.25576 0 0.35278-0.097 0.097-0.17639 0.0176-0.17639-0.17639zm-2.3813-0.26459c0-0.19402 0.07937-0.2734 0.17639-0.17638 0.09701 0.097 0.09701 0.25576 0 0.35277-0.09701 0.097-0.17639 0.0176-0.17639-0.17639zm11.906 0c0-0.19402 0.0794-0.2734 0.17639-0.17638 0.097 0.097 0.097 0.25576 0 0.35277-0.097 0.097-0.17639 0.0176-0.17639-0.17639zm-11.071-0.79375c0-0.3638 0.06005-0.51263 0.13345-0.33072 0.0734 0.1819 0.0734 0.47955 0 0.66145-0.0734 0.18191-0.13345 0.0331-0.13345-0.33073zm-1.1001 0c0-0.19402 0.07937-0.2734 0.17639-0.17638 0.09701 0.097 0.09701 0.25576 0 0.35277-0.09701 0.097-0.17639 0.0176-0.17639-0.17639zm2.3812 0c0-0.19402 0.07937-0.2734 0.17639-0.17638 0.097 0.097 0.097 0.25576 0 0.35277-0.09701 0.097-0.17639 0.0176-0.17639-0.17639zm10.075-0.15434c0.0127-0.30822 0.0754-0.37091 0.15985-0.15985 0.0764 0.191 0.067 0.4192-0.0209 0.50712-0.0879 0.0879-0.15045-0.0683-0.13896-0.34727zm-5.5298-0.18546c-1.1141-1.3425-1.1087-1.2192-1.0447-23.795l0.061-21.506 0.13747 21.828c0.14004 22.235 0.18983 23.283 1.106 23.283 0.12217 0 0.22212-28.165 0.22212-62.588v-62.588l-1.101-1.6391c-0.60554-0.90152-1.5546-2.1388-2.1091-2.7495l-1.0081-1.1103 0.40478-0.96878c0.22263-0.53284 0.36733-1.0062 0.32156-1.052-0.12561-0.1256-2.2537 1.9092-2.4131 2.3073-0.10261 0.25636-0.14422 0.24329-0.15966-0.0502-0.01148-0.21828 0.37168-0.7101 0.85147-1.0929 0.47979-0.38283 1.2607-1.4246 1.7353-2.3151l0.86295-1.619h1.6537c1.9374 0 2.3067 0.22934 3.0841 1.9151 0.31798 0.68951 0.98242 1.6086 1.4765 2.0424 1.15 1.0097 1.1332 1.1471-0.25748 2.1039-0.63571 0.43738-1.5584 1.4226-2.0505 2.1895l-0.89468 1.3942-0.0517 62.949c-0.0498 60.642-0.0931 63.946-0.82699 63.062zm2.2507-129.88c0.72402-0.68017 0.76093-1.0687 0.18506-1.9476-0.75668-1.1548-1.1602-0.82953-1.1602 0.93535 0 1.7572 0.0866 1.847 0.97513 1.0122zm-2.661-0.92087c0.34528-1.3757-1.0021-2.2984-1.4884-1.0193-0.32965 0.86705 0.0661 1.7217 0.79729 1.7217 0.33648 0 0.57588-0.24332 0.69111-0.70241zm-6.7808 130.35c0-0.19402 0.07937-0.2734 0.17639-0.17638 0.09701 0.097 0.09701 0.25576 0 0.35277-0.09701 0.097-0.17639 0.0176-0.17639-0.17639zm2.4021-0.15434c0.0127-0.30822 0.07539-0.37091 0.15985-0.15985 0.07643 0.191 0.06703 0.4192-0.02089 0.50712-0.08792 0.0879-0.15045-0.0684-0.13896-0.34727zm-1.302-0.37482c0-0.3638 0.06005-0.51263 0.13345-0.33073 0.0734 0.1819 0.0734 0.47956 0 0.66146s-0.13345 0.0331-0.13345-0.33073zm11.864 0.26458c0-0.19403 0.0794-0.2734 0.17639-0.17639 0.097 0.097 0.097 0.25577 0 0.35278-0.097 0.097-0.17639 0.0176-0.17639-0.17639zm-13.187-0.79375c0-0.3638 0.06005-0.51263 0.13345-0.33073 0.0734 0.1819 0.0734 0.47956 0 0.66146s-0.13345 0.0331-0.13345-0.33073zm13.473-0.15434c0.0127-0.30822 0.0754-0.37092 0.15985-0.15985 0.0764 0.191 0.067 0.4192-0.0209 0.50712-0.0879 0.0879-0.15045-0.0683-0.13896-0.34727zm1.0583 0c0.0127-0.30822 0.0754-0.37092 0.15985-0.15985 0.0764 0.191 0.067 0.4192-0.0209 0.50712-0.0879 0.0879-0.15045-0.0683-0.13896-0.34727zm-12.171-0.26458c0.0127-0.30823 0.07539-0.37092 0.15985-0.15985 0.07643 0.19099 0.06703 0.41919-0.02089 0.50711-0.08792 0.0879-0.15045-0.0683-0.13896-0.34726zm-1.2717-1.4332c0-0.65485 0.0516-0.92274 0.11466-0.59531 0.06306 0.32742 0.06306 0.8632 0 1.1906s-0.11466 0.0595-0.11466-0.59531zm12.695 0.13229c3e-3 -0.58208 0.0571-0.78905 0.12041-0.45994 0.0633 0.32912 0.0609 0.80537-5e-3 1.0583-0.0662 0.25296-0.118-0.0163-0.11507-0.5984zm1.121-44.847c0-25.248 0.0311-35.577 0.0691-22.953 0.038 12.624 0.038 33.281 0 45.905s-0.0691 2.2953-0.0691-22.953zm-15.145-17.116c-0.07149-68.4-0.18247-63.918 1.537-62.075 1.0199 1.0934 1.081 1.2848 1.8131 5.6816 0.16159 0.97053 0.76887 2.9487 1.3495 4.3959l1.0557 2.6313-0.0463 20.078-0.0463 20.078-0.25474-11.112c-0.14012-6.1119-0.23867-13.256-0.21902-15.875 0.0196-2.6194 0.0471-6.6136 0.061-8.876l0.0253-4.1134-0.9638-2.4956c-0.53438-1.3837-1.1396-3.618-1.3584-5.0147-0.62084-3.9638-1.4983-6.0909-2.5125-6.0909-0.14343 0-0.26766 25.338-0.30776 62.772l-0.06725 62.772zm2.3365 61.941c0.01269-0.30822 0.07539-0.37092 0.15985-0.15985 0.07643 0.191 0.06703 0.4192-0.02089 0.50712-0.08792 0.0879-0.15045-0.0683-0.13896-0.34727zm-0.26458-1.3229c0.0127-0.30822 0.07539-0.37091 0.15985-0.15985 0.07643 0.191 0.06703 0.4192-0.02089 0.50712-0.08792 0.0879-0.15045-0.0684-0.13896-0.34727zm-0.7749-2.0285c-0.02186-1.1278 0.06399-2.0505 0.19076-2.0505 0.26022 0 0.66934 2.628 0.44417 2.8531-0.08003 0.08-0.16338-0.14223-0.18524-0.49391-0.02186-0.35167-0.12304-0.10363-0.22484 0.55122-0.16384 1.0538-0.18967 0.95504-0.22484-0.8599zm-10.438-1.6886c-0.4536-0.4536-0.18057-1.1918 0.40978-1.1079 0.38918 0.0553 0.59531 0.26652 0.59531 0.61009 0 0.52482-0.65411 0.84882-1.0051 0.49784zm32.612-0.24292c-0.43839-0.52822 0.21747-1.2846 0.89009-1.0265 0.52058 0.19976 0.57386 0.67161 0.12635 1.1191-0.41789 0.41789-0.60704 0.40065-1.0164-0.0927zm-42.462-1.1854c-0.71084-0.78547-0.26611-1.944 0.79282-2.0652 1.327-0.15196 1.8962 1.1112 0.93422 2.0732-0.67064 0.67064-1.1147 0.66858-1.727-8e-3zm51.611 0.0187c-0.53489-0.59105-0.37995-1.788 0.26341-2.0349 1.4116-0.54169 2.5992 1.1442 1.4573 2.0689-0.76334 0.61812-1.1373 0.61073-1.7207-0.034zm-18.307-4.3763c9.6e-4 -1.1642 0.0475-1.6075 0.10337-0.98519 0.0559 0.62231 0.0551 1.5748-2e-3 2.1167-0.0568 0.54185-0.10258 0.0327-0.10162-1.1315zm-21.155-2.3627c-0.26344-0.68651 0.1058-1.2539 0.75591-1.1616 0.43728 0.0621 0.5965 0.26125 0.5965 0.74616 0 0.78101-1.0843 1.1141-1.3524 0.41543zm27.706 0.015c-0.44396-0.53493-0.0666-1.2242 0.67024-1.2242 0.75508 0 1.0859 0.63505 0.62205 1.194-0.40793 0.49152-0.89987 0.50301-1.2923 0.0302zm-33.218-1.2003c-0.22099-0.35757 0.12346-1.0822 0.51441-1.0822 0.39374 0 0.6355 0.51239 0.46814 0.99218-0.13394 0.38398-0.76514 0.44181-0.98255 0.09zm39.128-0.0493c-0.0986-0.15949-0.0163-0.45284 0.18282-0.65189 0.45899-0.45884 1.1636-0.0695 0.93806 0.51828-0.18595 0.48458-0.8547 0.5643-1.1209 0.13361zm-45.487-1.7265c-0.5872-0.5872-0.39946-1.2717 0.37907-1.3821 0.83191-0.11792 1.4228 0.62346 1.0509 1.3184-0.32458 0.60649-0.86314 0.63045-1.43 0.0636zm51.607 0.0132c-0.56551-0.56551-0.52421-0.8239 0.2084-1.3039 1.1146-0.73029 2.1934 0.26982 1.3256 1.2288-0.54314 0.60017-0.98719 0.62191-1.534 0.0751zm-18.581-2.8915c9.6e-4 -1.1642 0.0475-1.6075 0.10337-0.98519 0.0559 0.62231 0.0551 1.5748-2e-3 2.1167-0.0568 0.54186-0.10258 0.0327-0.10162-1.1315zm-39.076 0.70677c-0.91932-1.0158-0.17418-2.2238 1.0326-1.674 0.88834 0.40475 1.0746 1.0091 0.50499 1.6385-0.58521 0.64665-0.97629 0.65567-1.5376 0.0355zm63.774 0.17885c-0.72348-0.40487-0.56593-1.5152 0.25954-1.829 0.82837-0.31495 1.3551-0.16778 1.59 0.44419 0.34568 0.90082-0.96319 1.8808-1.8495 1.3848zm-45.124-0.36664c-4.9753-1.0797-9.5205-2.5494-9.9067-3.2034-0.12776-0.21632-0.68031-0.35825-1.3948-0.35825-5.2952 0-20.654-9.4912-29.085-17.974-0.14552-0.1464-0.7082-0.63674-1.2504-1.0896s-1.4901-1.4258-2.1065-2.162l-1.1207-1.3386 0.9159-0.77034c6.2303-5.2401 16.291-4.0369 19.288 2.3069 0.44524 0.94236 0.92874 1.7134 1.0744 1.7134 0.84747 0-0.38279-2.6838-2.2265-4.8572-1.8161-2.1408-1.83-2.022 0.23645-2.022 4.3039 0 8.2601 2.6488 10.867 7.276 3.1354 5.5646 5.735 7.0914 12.207 7.1696 2.5012 0.0302 4.6741 0.13307 4.8286 0.2286 0.35678 0.2205 0.37014 2.702 0.01573 2.921-0.17734 0.1096-0.17734 0.32831 0 0.65968 0.14592 0.27264 0.2653 1.1514 0.2653 1.9527s-0.11938 1.5308-0.2653 1.621c-0.17734 0.1096-0.17734 0.32831 0 0.65968 0.36939 0.69021 0.33255 3.2678-0.0522 3.6526-0.24694 0.24694-0.24694 0.38805 0 0.635 0.65004 0.65004 0.26203 3.4704-0.46302 3.3656-0.08004-0.0116-0.90239-0.18528-1.8274-0.38603zm-10.357-7.6349c0-0.0575-0.46624-0.14896-1.0361-0.2033-0.56984-0.0543-0.97953-7e-3 -0.91043 0.1045 0.12574 0.20345 1.9465 0.29588 1.9465 0.0988zm-14.896-8.8806c1.057-0.64447 1.6481-1.762 1.8547-3.5059 0.18423-1.5555-0.28043-1.6075-0.57003-0.0638-0.55638 2.9658-3.3278 4.0225-4.6587 1.7764-1.3396-2.2608-1.9883-3.0453-3.0167-3.648-1.2837-0.7523-3.6117-1.3009-4.5358-1.069-0.90798 0.22789-0.53587 0.67874 0.5602 0.67874 2.439 0 4.3411 1.2941 5.9656 4.0587 1.3346 2.2714 2.6886 2.8168 4.4008 1.7728zm50.262 16.746c-0.30472-0.30472-0.19163-2.8775 0.14111-3.2103 0.24695-0.24695 0.24695-0.38806 0-0.635-0.17462-0.17463-0.3175-0.98425-0.3175-1.7992s0.14288-1.6245 0.3175-1.7992c0.24695-0.24694 0.24695-0.38805 0-0.635-0.39715-0.39715-0.42088-3.442-0.0299-3.833 0.20713-0.20713 0.20713-0.3374 0-0.46541-0.38163-0.23586-0.37088-2.7097 0.0128-2.9468 0.16525-0.10213 2.1595-0.20466 4.4318-0.22785 6.7362-0.0688 9.4356-1.5206 12.506-6.726 2.9091-4.9321 5.4342-6.878 9.9992-7.7058 3.0281-0.54909 3.4898-0.0687 1.7095 1.7786-1.7331 1.7984-3.469 5.3806-2.4413 5.038 0.1715-0.0572 0.39829-0.27545 0.50398-0.48507 3.8253-7.5873 11.612-9.0415 19.491-3.6401 1.5459 1.0597 1.4988 1.179-1.7198 4.3585-9.3871 9.2732-25.452 19.141-31.161 19.141-0.87737 0-1.2326 0.12523-1.4366 0.5065-0.54419 1.0168-11.325 3.9673-12.007 3.2859zm15.317-8.1717c0.49287-0.39401 0.48691-0.40284-0.14787-0.21874-0.3638 0.10552-1.0782 0.27658-1.5875 0.38015l-0.92604 0.18831 1.0739 0.0304c0.61549 0.0174 1.2932-0.14484 1.5875-0.38015zm15.924-8.7402c0.3263-0.21104 0.90464-1.0066 1.2852-1.768 1.1582-2.3171 2.8896-3.5305 6.059-4.2461 0.29104-0.0657 0.0448-0.1333-0.54729-0.15018-2.6422-0.0753-4.9035 1.3255-6.1434 3.8058-1.4425 2.8856-3.9149 2.7474-4.773-0.26674-0.20679-0.72642-0.42466-1.4895-0.48413-1.6957-0.33025-1.1451-0.71349 0.30333-0.39517 1.4935 0.83363 3.1168 2.8169 4.2387 4.9987 2.8275zm-80.101 14.177c-0.22697-0.4241-0.2234-0.6553 0.01454-0.94201 0.73804-0.88929 2.0009-0.0593 1.3888 0.91277-0.40646 0.64551-1.0661 0.65925-1.4033 0.0292zm74.359 0.14595c-0.50725-0.6112-0.22595-1.3356 0.51862-1.3356 0.41936 0 0.6871 0.17078 0.74583 0.47573 0.0916 0.4757-0.36903 1.2441-0.74583 1.2441-0.10988 0-0.34326-0.17287-0.51862-0.38416zm-30.086-2.1294c1e-3 -1.0186 0.049-1.4029 0.10627-0.85399 0.0573 0.54895 0.0563 1.3824-2e-3 1.8521-0.0585 0.4697-0.10531 0.0206-0.10413-0.99809zm-49.385-1.5616c-0.17841-0.46494 0.03482-0.68733 0.65902-0.68733 0.30868 0 0.48507 0.19243 0.48507 0.52917 0 0.61634-0.91949 0.74345-1.1441 0.15816zm84.615 0.098c-0.10275-0.16626-0.0623-0.42679 0.0898-0.57895 0.35558-0.35557 1.1846-0.0454 1.0399 0.38905-0.14726 0.44231-0.89597 0.56815-1.1298 0.1899zm-35.187-46.823c0-25.248 0.0311-35.577 0.0691-22.953s0.038 33.281 0 45.905-0.0691 2.2953-0.0691-22.953zm-55.757 42.796c-0.21226-0.5772 0.08897-0.99219 0.72021-0.99219 0.63124 0 0.94032 0.41499 0.73898 0.99219-0.06345 0.1819-0.39036 0.33073-0.72647 0.33073s-0.66583-0.14883-0.73273-0.33073zm96.837 0c-0.2151-0.58493 0.0921-0.99219 0.74852-0.99219 0.50565 0 0.63941 0.13837 0.63941 0.66146 0 0.71954-1.1446 0.99229-1.3879 0.33073zm-103.03-4.8269c-0.09164-0.23882-0.05166-0.54917 0.08885-0.68968 0.37026-0.37027 1.1781 0.018 1.0815 0.51973-0.11216 0.58237-0.9646 0.70616-1.1704 0.16995zm109.6 0.16905c-0.27061-0.43787 0.14055-1.0969 0.68436-1.0969 0.38657 0 0.49766 0.15144 0.43472 0.59261-0.0875 0.61349-0.84157 0.95326-1.1191 0.50425zm-73.65-1.3911c-3.286-0.54726-5.2598-2.1498-8.2272-6.68-3.4735-5.3028-7.8958-8.3715-12.064-8.3715-1.3271 0-1.6883-0.26983-2.6568-1.9844-0.411-0.7276-1.1443-1.7908-1.6295-2.3627-1.7919-2.112-2.0848-2.0617 11.314-1.9423 13.383 0.11927 13.822 0.2261 18.975 4.6138l2.4308 2.0699v3.0572c0 2.025-0.10719 3.1644-0.3175 3.3747-0.24694 0.24694-0.24694 0.38805 0 0.635 0.39695 0.39695 0.41801 2.6512 0.02841 3.0408-0.20907 0.20907-0.20907 0.43862 0 0.82927 0.38828 0.7255 0.3685 3.3002-0.02841 3.697-0.37269 0.37269-5.6326 0.38833-7.8247 0.0233zm30.698 0.11901c-0.56131-0.22649-0.44422-3.6929 0.13229-3.9164 0.43801-0.1698 0.43721-0.1985-0.0147-0.53127-0.37821-0.27848-0.46091-0.64669-0.39688-1.767l0.0809-1.4153 2.1167-0.29837-0.79375-0.20364c-0.43656-0.112-0.94258-0.24949-1.1245-0.30553-0.24015-0.074-0.33073-0.95723-0.33073-3.225v-3.123l1.9589-1.6348c3.6898-3.0792 6.3299-4.4251 9.484-4.8348 2.7678-0.35952 22.688-0.34396 22.688 0.0177 0 0.15579-0.46069 0.8404-1.0238 1.5214-0.56306 0.68095-1.4334 1.9513-1.934 2.823l-0.91023 1.5849-2.1009 0.30449c-5.1248 0.74273-8.5326 3.1724-11.662 8.3151-2.3063 3.7895-5.0963 5.9419-8.5518 6.5972-1.4232 0.26991-7.009 0.33691-7.6174 0.0914zm-73.463-5.0141c-0.23129-0.60274 0.16321-0.96179 0.93655-0.85237 0.41992 0.0594 0.62583 0.26265 0.62583 0.61771 0 0.70443-1.3068 0.9007-1.5624 0.23466zm122.77 0.20122c-0.29639-0.47956 0.1632-1.0973 0.81635-1.0973 0.52435 0 0.63505 0.11623 0.56701 0.59532-0.0881 0.62033-1.0864 0.9826-1.3834 0.50202zm-61.804-3.0817c0-0.0728 0.0595-0.13229 0.13229-0.13229 0.0728 0 0.13229 0.0595 0.13229 0.13229 0 0.0728-0.0595 0.13229-0.13229 0.13229-0.0728 0-0.13229-0.0595-0.13229-0.13229zm0.0351-40.283 0.0894-39.886-0.61036-0.98758c-0.33569-0.54317-1.2804-1.5848-2.0994-2.3148-0.81901-0.72997-1.397-1.3272-1.2844-1.3272 0.36889 0 3.3848 3.0237 3.8265 3.8364 0.47982 0.88283 0.69192 80.565 0.21445 80.565-0.12407 7e-5 -0.18534-17.949-0.13617-39.886zm10.11 36.314c9.6e-4 -1.1642 0.0475-1.6075 0.10337-0.98519 0.0559 0.62231 0.0551 1.5748-2e-3 2.1167-0.0568 0.54186-0.10258 0.0327-0.10162-1.1315zm-75.762 0.37747c0-0.67803 0.87573-0.60111 1.0086 0.0886 0.06114 0.3175-0.08134 0.45998-0.45998 0.45998-0.37864 0-0.54857-0.16992-0.54857-0.54857zm125.31 0.0484c-0.64513-0.71286-3.363-2.1125-5.6796-2.9247-3.9771-1.3945 0.56001-4.0178 6.9237-4.0031 5.4124 0.0125 5.6529 0.27037 3.2446 3.4793-3.0101 4.0107-3.5822 4.4502-4.4887 3.4485zm7.5144-0.029c0-0.35277 0.17639-0.52916 0.52917-0.52916s0.52916 0.17639 0.52916 0.52916c0 0.35278-0.17638 0.52917-0.52916 0.52917s-0.52917-0.17639-0.52917-0.52917zm-125.97-0.0661c-1.0094-0.83671-4.4646-5.3848-4.4646-5.8768 0-1.1934 6.4414-1.3118 9.698-0.17813 4.7201 1.6431 4.8865 2.1285 1.1944 3.4839-1.5035 0.55194-3.3769 1.4306-4.1631 1.9527-1.5937 1.0582-1.6993 1.087-2.2647 0.61841zm17.431-2.7322c-0.32426-0.32426-4.0973-1.1615-5.2538-1.1658-0.93927-4e-3 -1.4781-0.19364-2.3607-0.83299-3.3809-2.4491-7.6505-3.5165-11.716-2.9287-3.5018 0.50632-3.7684 0.46676-4.5446-0.6746-1.0906-1.6036-1.0815-1.6051 9.704-1.6416l9.537-0.0323 1.4891 1.5369c1.5068 1.5552 3.7381 4.8535 3.7381 5.5257 0 0.37342-0.31883 0.48803-0.59351 0.21334zm84.731-0.13976c0-1.0104 2.3971-4.7386 3.9471-6.139l1.0815-0.97705h9.6349c11.484 0 11.276-0.0394 9.6782 1.8292-0.85174 0.99614-1.3159 1.0622-3.9387 0.5602-4.276-0.81832-8.1338 0.0747-12.465 2.8855-0.86853 0.5636-1.64 0.81359-2.8517 0.92413-0.9136 0.0833-2.3382 0.38952-3.1658 0.6804-1.7388 0.61114-1.92 0.63346-1.92 0.23658zm-112.8-1.4082c-0.24519-0.63894 0.56495-1.1112 1.0589-0.61731 0.2282 0.22819 0.33426 0.54539 0.23569 0.70487-0.25724 0.41623-1.1237 0.35763-1.2946-0.0876zm140.15-0.0176c-0.0916-0.23882-0.0397-0.56108 0.11531-0.71615 0.40312-0.40312 1.1669-0.0347 1.0616 0.5121-0.11729 0.60904-0.96511 0.75603-1.1769 0.20405zm-82.653-1.3434c-4.2181-4.4067-6.3292-4.8923-21.241-4.886-13.128 6e-3 -12.311 0.12564-15.072-2.2166-2.9143-2.4724-4.4626-2.2839 18.129-2.2069l19.91 0.0678v5.0235c0 5.687-0.096 5.9215-1.7264 4.2183zm21.756-41.772c0.064-34.615 0.14425-42.782 0.42297-43.061 0.5195-0.51943 6.542-0.47414 7.5935 0.0571l0.79375 0.40103v4.9191l1.2414 1.1743c1.3888 1.3138 1.3944 1.5322 0.0123 0.47798-1.3016-0.99276-1.7179-2.1754-1.6089-4.5701l0.0907-1.9911-1.4552-0.34995c-1.4748-0.35467-6.1848-0.31892-6.5534 0.0497-0.1035 0.10349-0.18936 19.408-0.19081 42.899-1e-3 23.491-0.0977 42.711-0.21395 42.711-0.11621 0-0.17575-19.223-0.13229-42.717zm2.4456 42.377c-0.0717-0.18679-0.0977-2.4788-0.0578-5.0932l0.0725-4.7536 20.042-0.0678c22.596-0.0764 21.125-0.24317 18.269 2.0708-3.2321 2.6184-1.6078 2.3628-14.941 2.3516-14.998-0.0126-15.991 0.18577-20.753 4.1442-2.1143 1.7578-2.4154 1.912-2.6318 1.348zm-84.92-4.7893c-0.59089-0.43206-0.40653-1.3318 0.29349-1.4323 0.66176-0.095 1.2345 0.51531 1.0166 1.0832-0.22409 0.58398-0.78458 0.73332-1.3101 0.34906zm146.82-0.27651c-0.26344-0.6865 0.1058-1.2539 0.75591-1.1616 0.43729 0.0621 0.5965 0.26125 0.5965 0.74616 0 0.78101-1.0843 1.1141-1.3524 0.41543zm-140.86-0.63563c-0.36413-0.12125-2.1177-3.301-2.1177-3.8401 0-0.39793 0.76544-0.4376 8.4446-0.4376h8.4446l0.48509 0.64145c0.2668 0.3528 1.1792 1.2005 2.0276 1.8838 0.97608 0.78618 1.45 1.3349 1.2907 1.4942-0.22899 0.22899-17.924 0.47496-18.575 0.2582zm117.21-2.5e-4c-0.58032-0.19052-0.21468-0.84956 0.8949-1.613 0.63995-0.4403 1.5606-1.2215 2.0459-1.736l0.88239-0.9355 8.6036 0.0697c8.337 0.0675 8.6008 0.0855 8.5148 0.58082-0.0715 0.41163-1.6202 3.088-2.0712 3.5792-0.12643 0.13771-18.456 0.191-18.87 0.0549zm-58.742-40.754c0-36.593-0.025-38.692-0.46302-38.866-0.78756-0.31353-5.6996-0.19224-6.7469 0.1666-1.1081 0.37968-1.1107 0.38754-0.69141 2.0528 1.4258 5.6622-7.1854 8.1492-9.2103 2.66-1.8918-5.1284 3.2251-9.7684 12.88-11.68 5.9008-1.1681 7.1287-2.1392 6.7309-5.3232-0.13774-1.1024-0.08038-1.5843 0.24823-2.0858 0.38322-0.58486 0.42735-2.5806 0.42735-19.323v-18.671l-0.92604-0.92604c-1.2462-1.2462-1.291-2.7064-0.13229-4.306 1.2137-1.6755 1.0977-2.6112-0.5493-4.4298-7.0486-7.7834 1.5978-19.747 11.409-15.786 6.5086 2.6276 8.4044 11.145 3.5717 16.047-1.4978 1.5193-1.535 2.7154-0.13411 4.311 1.1612 1.3226 1.0938 2.6464-0.20837 4.0876l-0.99218 1.0981v18.705c0 14.55 0.0733 18.794 0.32989 19.103 0.20814 0.2511 0.30922 1.084 0.27387 2.2567-0.1 3.3166 0.92676 4.1323 6.4077 5.0907 7.2078 1.2604 11.171 3.384 12.946 6.9363 2.1583 4.3192-0.59137 8.9646-4.7101 7.9573-0.88077-0.21541-0.82879-0.23371 0.62712-0.22075 4.956 0.0441 6.2967-5.6534 2.2686-9.6407-2.5355-2.5098-5.1084-3.6043-11.162-4.7481-5.5237-1.0437-6.7765-2.007-6.6567-5.1184 0.0333-0.86526-0.1209-2.1277-0.34282-2.8062-0.3488-1.0664-0.39281-3.6865-0.32516-19.36l0.0782-18.127 0.99219-1.1589c1.1707-1.3674 1.276-2.3485 0.39589-3.6883-1.6912-2.5746-1.702-3.1773-0.0855-4.7638 5.0338-4.9403 2.7463-13.791-4.1166-15.927-9.7096-3.022-17.079 8.4718-10.169 15.859 1.5355 1.6415 1.6501 2.8591 0.41538 4.4128-1.131 1.4232-1.0937 2.7092 0.11745 4.0498l0.9112 1.0086 0.05913 18.682c0.05321 16.813 0.01639 18.748-0.36804 19.334-0.30704 0.46861-0.4125 1.1752-0.37502 2.5125 0.08763 3.1261-1.1639 4.1587-6.1491 5.0736-10.005 1.8361-15.339 6.4182-13.395 11.508 2.0548 5.3803 10.139 2.6674 8.5041-2.854-0.49993-1.6888-0.36557-1.8334 2.144-2.3069 1.7754-0.33499 5.8042-0.198 6.2134 0.21127 0.24502 0.24502 0.36371 77.266 0.11944 77.51-0.08962 0.0896-0.16294-17.244-0.16294-38.519zm-67.053 36.061c-0.51557-0.51557-0.52206-0.75414-0.0316-1.1612 0.8855-0.7349 1.964 0.44585 1.1504 1.2595-0.41843 0.41843-0.6198 0.40074-1.1188-0.0983zm151.91-0.014c-0.38181-0.38181-0.17033-1.1275 0.36825-1.2984 0.66907-0.21235 1.1159 0.16779 0.98766 0.84025-0.0946 0.49582-1.0092 0.80489-1.3559 0.45818zm-148.4-4.0764c-0.51772-0.30217-1.9212-3.8155-1.7267-4.3224 0.23524-0.61302 62.143-0.95509 63.087-0.34858 0.44099 0.2834 0.45215 4.1874 0.01323 4.6263-0.4059 0.4059-60.679 0.44972-61.374 0.0446zm84.092 0.0965c-0.33293-0.33293-0.19672-4.5417 0.15434-4.7689 0.45912-0.29715 62.351-0.34254 63.13-0.0463 0.74366 0.28274 0.67582 0.74277-0.4881 3.3097l-0.7626 1.6819h-30.929c-17.011 0-31.008-0.0794-31.105-0.17639zm-89.975-1.4521c-0.5638-0.80494-0.10812-1.607 0.8501-1.4963 0.79926 0.0923 1.1124 1.025 0.56543 1.6841-0.44909 0.54111-0.95171 0.47444-1.4155-0.18776zm156.47 0.0409c-0.43054-0.43053-0.48401-0.64833-0.26134-1.0644 0.47775-0.89267 1.8488-0.57977 1.8488 0.42194 0 0.95219-0.90965 1.3203-1.5875 0.64246zm-152.88-4.8398c-0.58959-0.71041-1.8562-5.0656-1.5739-5.412 0.40584-0.49806 64.84-0.48084 65.253 0.0174 0.36055 0.43444 0.13612 5.2488-0.25598 5.4912-0.6082 0.37589-63.11 0.28072-63.423-0.0966zm86.636-0.0129c-0.57395-0.4389-0.70103-5.1307-0.14847-5.4819 0.50934-0.3237 65.074-0.31808 65.591 6e-3 0.38166 0.23916-0.7148 4.579-1.3869 5.4893-0.33456 0.45314-63.462 0.44021-64.055-0.0131zm-92.314-0.60315c-0.71273-0.71273 0.52012-2.0428 1.2964-1.3986 0.612 0.50791 0.34896 1.4173-0.43646 1.5089-0.36925 0.0431-0.7562-7e-3 -0.8599-0.11025zm160.6-9.8e-4c-0.60464-0.60464 0.18656-1.8313 0.98385-1.5253 0.64807 0.24869 0.44655 1.535-0.25625 1.6356-0.29703 0.0425-0.62445-7e-3 -0.7276-0.11024zm-161.85-6.9503c0-0.64029 0.66195-0.90279 1.0618-0.42104 0.38862 0.46825 0.11885 0.9219-0.54822 0.9219-0.32749 0-0.51355-0.18146-0.51355-0.50086zm163.34 0.0862c-0.0875-0.22806-0.0293-0.54448 0.12938-0.70316 0.38202-0.38202 1.1301 0.21453 0.92835 0.74029-0.19355 0.50438-0.8589 0.48103-1.0577-0.0371zm-158.85-0.39469c-0.37358-0.37358-0.51908-0.81008-0.46302-1.3891l0.08175-0.8443 32.808-0.0725c37.676-0.0833 35.473-0.22573 33.89 2.1911l-0.43214 0.65953h-32.67c-32.629 0-32.671-6.8e-4 -33.215-0.54477zm88.704 0.22727c-0.17463-0.17463-0.3175-0.68659-0.3175-1.1377 0-0.45111 0.14287-0.96308 0.3175-1.1377 0.49125-0.49125 66.705-0.45788 67.113 0.0338 0.34602 0.41693-0.0296 2.006-0.55267 2.338-0.5814 0.36902-66.19 0.27399-66.561-0.0964zm-89.408-4.4617c-0.62782-0.2405-0.74846-0.59374-1.002-2.9338-0.14498-1.3383-0.10104-1.538 0.41832-1.9018 0.53694-0.37608 0.548-0.43878 0.14807-0.83871-0.23773-0.23773-0.43224-0.75931-0.43224-1.1591 0-0.39976-0.18512-1.3502-0.41139-2.1121-0.22626-0.76191-0.37509-1.8848-0.33073-2.4954l0.08066-1.1101 33.971-0.0671c25.9-0.0512 34.06 7e-3 34.349 0.24674 0.40838 0.33893 0.24312 5.5336-0.21499 6.7579-0.16222 0.43353-0.10496 0.65178 0.21853 0.83281 0.53785 0.30099 0.5303 4.5105-0.0087 4.8521-0.4378 0.27745-66.058 0.20734-66.785-0.0714zm7.5989-5.275c0-0.31381-0.06393-0.3189-3.9608-0.31521-1.9531 2e-3 -3.069 0.10568-3.1309 0.29133-0.06627 0.19879 1.0211 0.28847 3.4978 0.28847 2.2196 0 3.5939-0.10118 3.5939-0.26459zm32.544 0c0-0.28803-0.60435-0.2992-19.406-0.35857-11.019-0.0348-13.026 0.0399-12.015 0.44738 0.66764 0.26916 31.421 0.18225 31.421-0.0888zm1.0583 0c0.32093-0.2074 0.28296-0.25725-0.19844-0.26053-0.32742-2e-3 -0.59531 0.11501-0.59531 0.26053 0 0.33151 0.28079 0.33151 0.79375 0zm1.5875 0c0-0.3315-0.28079-0.3315-0.79375 0-0.32093 0.2074-0.28296 0.25726 0.19844 0.26053 0.32742 2e-3 0.59531-0.11501 0.59531-0.26053zm7.7988-0.0103c-0.20786-0.33633-5.4176-0.29668-5.4176 0.0412 0 0.1285 1.2572 0.23365 2.7937 0.23365 1.8649 0 2.7373-0.0914 2.6239-0.27488zm2.4317 0.0985c-0.09701-0.097-0.25576-0.097-0.35278 0-0.09701 0.097-0.01764 0.17639 0.17639 0.17639 0.19403 0 0.2734-0.0794 0.17639-0.17639zm1.4111 0.0597c0-0.27926-0.50776-0.39659-0.65879-0.15222-0.0914 0.14789 0.01943 0.2689 0.2463 0.2689 0.22687 0 0.41249-0.0525 0.41249-0.11668zm9.6465-0.13226c-0.3472-0.3472-7.7305-0.40466-8.5881-0.0668-0.47617 0.18755 0.67103 0.27037 4.0953 0.29564 3.163 0.0233 4.6683-0.0533 4.4928-0.22881zm1.3409-4e-3c-0.08601-0.13917-0.33116-0.18596-0.54478-0.10399-0.54692 0.20988-0.48247 0.35702 0.15638 0.35702 0.29963 0 0.47441-0.11387 0.3884-0.25303zm24.571 5.2858c-1.7345-0.70092-1.0522-5.0327 0.79264-5.0327 0.43304 0 0.65423-0.11029 0.55221-0.27535-0.0936-0.15144-0.38146-0.20828-0.63971-0.12632-0.84167 0.26714-1.0558-0.46115-1.1319-3.8495l-0.0738-3.2895 34.264-0.0681c29.91-0.0595 34.3-0.0187 34.55 0.32121 0.32606 0.44268 0.0647 3.0161-0.56015 5.5143-0.33516 1.3401-0.33516 1.6081-1e-5 2.1196 0.43035 0.65679 0.12714 3.9276-0.42586 4.594-0.33948 0.40905-66.32 0.49963-67.327 0.0924zm36.702-5.2742c-0.44564-0.28219-8.2504-0.39484-19.872-0.28682-4.7294 0.044-9.1347 0.0634-9.7896 0.0432-2.9701-0.0917-4.6329-0.015-4.8728 0.22493-0.17049 0.17049 5.7999 0.25876 17.321 0.2561 10.255-2e-3 17.428-0.10128 17.213-0.23737zm27.887-0.0207c-0.19831-0.32087-27.386-0.27489-27.386 0.0463 0 0.1187 6.1983 0.21582 13.774 0.21582 9.0296 0 13.718-0.0903 13.612-0.26214zm1.9829-2e-3c0-0.14552-0.11203-0.26458-0.24896-0.26458-0.13694 0-0.32256 0.11906-0.41249 0.26458-0.0899 0.14552 0.0221 0.26459 0.24896 0.26459 0.22687 0 0.41249-0.11907 0.41249-0.26459zm-161.29-0.62977c-0.21415-0.55806 0.08644-0.95827 0.71972-0.95827 0.39971 0 0.51094 0.14732 0.44741 0.59261-0.09867 0.69162-0.9408 0.95545-1.1671 0.36566zm165.09-0.0305c-0.0916-0.23881-0.0397-0.56108 0.11531-0.71614 0.40312-0.40312 1.1669-0.0347 1.0616 0.5121-0.11729 0.60904-0.96511 0.75603-1.1769 0.20404zm-74.645-17.795c-0.0588-15.362-0.42176-22.779-0.6602-13.494l-0.0832 3.2411-0.0572-3.3451c-0.0471-2.756 0.0122-3.3718 0.33697-3.4964 0.65866-0.25275 0.68087 0.38904 0.60287 17.425l-0.0751 16.404zm-91.615 9.1843c-0.63385-1.1844 0.61432-2.3308 1.5831-1.454 1.0884 0.98495 2.1774-2.377 1.192-3.6798-0.70272-0.92908-0.50884-2.4854 0.33914-2.7223 1.3658-0.38161 68.987-0.24846 69.451 0.13675 0.6536 0.54245 0.65677 7.3597 0.0036 7.653-0.25559 0.11476-16.24 0.14912-35.522 0.0764-27.807-0.10494-35.144-0.0639-35.475 0.19843-0.61492 0.48688-1.2446 0.40339-1.572-0.20843zm167.01-0.11958c-0.44926-0.57113-0.56172-0.60633-0.84535-0.26458-0.36486 0.43963-69.893 0.60956-70.581 0.17251-0.25183-0.15983-0.31842-1.1393-0.26458-3.8916l0.0719-3.678 1.1561-0.19702c0.63586-0.10836 16.378-0.17103 34.982-0.13927 37.893 0.0647 35.217-0.0789 34.379 1.8446-0.88478 2.0308-0.058 5.8328 1.0503 4.8298 0.82475-0.74638 1.8544-0.30683 1.8544 0.79161 0 1.2334-1.0152 1.5329-1.8027 0.53184zm-166.68-5.7441c-0.55281-0.55282-0.19933-1.7992 0.51027-1.7992 0.26742 0 1.0243 0.78203 1.0243 1.0583 0 0.71778-1.0505 1.2249-1.5346 0.74084zm166.68-0.11696c-0.34054-0.6085-0.0859-1.3698 0.52268-1.563 0.60646-0.19249 1.2816 0.29146 1.2816 0.91861 0 0.99241-1.3415 1.4715-1.8043 0.6444zm-164.87-9.9989c-0.34365-0.41408 0.11405-1.025 1.3984-1.8666 0.69282-0.45395 26.148-0.7306 26.858-0.2919 0.4697 0.29029 0.35859 1.1666-0.18478 1.4574-0.30124 0.16122-5.4295 0.26695-13.386 0.27598-10.989 0.0125-12.981 0.073-13.461 0.40942-0.69827 0.48909-0.83061 0.49078-1.225 0.0156zm162.97-0.15c-0.241-0.15574-5.4368-0.26577-13.229-0.28014-14.512-0.0268-15.214-0.0743-15.214-1.0308 0-0.96773 0.16751-0.97852 13.626-0.87798 6.7667 0.0506 12.8 0.0875 13.407 0.0821 1.2545-0.0112 2.7323 0.99797 2.7323 1.8658 0 0.54969-0.65941 0.66985-1.3229 0.24106zm-122.77-0.50132c-0.47596-0.13239-0.66146-0.36614-0.66146-0.83352v-0.64953l3.9969-0.0728c4.4828-0.0817 5.4305 0.21729 4.1011 1.2938-0.64372 0.52126-5.8458 0.7046-7.4366 0.2621zm17.713-0.25691c-1.3343-1.0935-0.42826-1.3464 5.0793-1.4179 5.0584-0.0657 5.7827 0.0626 5.7827 1.0245 0 0.98876-9.7065 1.3404-10.862 0.39345zm37.867 0.0306c-1.5726-1.2761-0.45913-1.5214 6.9068-1.5214 7.748 0 8.2561 0.0527 8.374 0.86926 0.17484 1.2107-13.855 1.8094-15.281 0.65209zm19.099 0.28779c-0.57914-0.23369-0.38999-1.4043 0.26458-1.6374 2.3508-0.83726 9.2694 0.0166 8.8563 1.093-0.24308 0.63345-7.7846 1.0836-9.1209 0.54436zm-112.46-4.2744c-0.98055-0.0942-1.3407-0.64123-0.82852-1.2584 0.34007-0.40977 5.0389-0.52144 7.326-0.17412 3.9121 0.5941-1.8954 1.8745-6.4975 1.4325zm10.487 4e-3c-1.509-0.0974-2.1878-0.70722-1.4157-1.2718 0.41516-0.30357 2.9518-0.36825 14.444-0.36825 16.156 0 14.631 0.32693 14.494-3.1085-0.33396-8.3868-10.569-14.402-17.638-10.365-1.6013 0.91454-1.6302 1.072-0.57892 3.1545 1.501 2.9734 0.49399 3.9307-1.0626 1.0102-2.3584-4.4248-5.9684-6.2216-12.003-5.9744-3.8209 0.15656-5.4468 3e-3 -5.6531-0.53502-0.42724-1.1134 2.1147-1.375 8.348-0.85938 3.2401 0.26804 4.8248 0.81063 7.064 2.4187l1.1774 0.84555 0.99847-0.68943c6.526-4.5062 16.588-1.143 19.96 6.6716 0.64185 1.4875 0.86431 1.2453 1.4282-1.555 3.2795-16.286-16.539-26.898-29.086-15.574-2.2042 1.9894-3.1225 2.1363-2 0.32 10.208-16.518 38.449-0.89928 32.113 17.76-0.52178 1.5369-0.48892 1.5671 1.2993 1.1959 3.8024-0.78937 10.677 4.4155 8.5895 6.5031-0.38719 0.38719-35.367 0.75073-40.479 0.42068zm38.285-1.9162c0.81806-1.3236-3.3725-3.9451-5.6482-3.5334-2.2997 0.4161-4.528 2.6805-3.5753 3.6332 0.30024 0.30023 9.0347 0.20569 9.2235-0.0998zm61.202 1.9183c-2.2002-0.097-2.3442-0.37836-1.2162-2.3771 1.9151-3.3933 4.2331-4.7128 7.9056-4.5002 1.1462 0.0663 2.084 0.051 2.0839-0.034-7e-5 -0.0851-0.2631-0.80953-0.58451-1.6099-6.5308-16.263 17.301-31.812 30.143-19.666 2.9159 2.7576 2.4417 3.7299-0.61788 1.2669-11.556-9.3025-28.544-1.6591-28.544 12.843-9e-5 5.3348 0.60002 6.7686 1.7928 4.2835 3.3554-6.9907 12.61-10.131 18.782-6.3739 1.5672 0.95404 1.5173 0.95623 3.0381-0.13337 1.6765-1.2011 4.8751-2.2072 5.5976-1.7607 0.59296 0.36647 0.14095 0.99346-0.85027 1.1794-2.7278 0.51174-5.8951 3.0567-7.5119 6.036-1.4269 2.6293-2.1556 1.7084-0.86452-1.0925 1.0384-2.2528 0.98846-2.4042-1.1367-3.4504-7.6331-3.7578-18.301 4.1131-16.714 12.332l0.24769 1.283 8.8635 0.14125c4.875 0.0777 8.8933 0.16698 8.9297 0.19844 0.21566 0.18646 0.012 1.1521-0.26459 1.2543-0.37492 0.13848-26.373 0.29978-29.08 0.18043zm9.9081-2.5682c-0.25124-3.5579-7.0018-3.798-9.0375-0.32152-0.66508 1.1358-0.18861 1.2548 4.7279 1.1809l4.3656-0.0656zm29.425 2.519c-8.1928-0.13754-8.2022-0.13835-8.2847-0.71794-0.12176-0.85563 0.52257-0.90511 10.666-0.81902l8.9958 0.0763 0.0847 0.59649c0.14156 0.99691-0.53101 1.0476-11.462 0.86412zm-85.011-5.35c-0.74449-0.74449 0.05483-1.7787 0.9885-1.279 0.64585 0.34565 0.72243 1.2077 0.12756 1.436-0.59073 0.22669-0.75568 0.2035-1.1161-0.1569zm29.061-0.19329c-0.27178-0.50783 0.21534-1.3413 0.78391-1.3413 0.2763 0 1.0583 0.75689 1.0583 1.0243 0 0.82824-1.4364 1.0754-1.8422 0.31698zm-21.019-3.9804c0.76684-0.31002 2.23-2.5958 2.1926-3.4255-0.02017-0.44837-0.07217-0.52352-0.15169-0.21923-0.14838 0.56782-0.69774 0.59968-1.1405 0.0662-0.55067-0.66351-0.76018-0.45497-0.86385 0.8599l-0.0991 1.2568-0.04769-1.3362c-0.02626-0.73588 0.09214-1.476 0.26356-1.6474 0.23861-0.23861 0.19684-0.43767-0.17896-0.85292-0.86449-0.95525-0.09735-1.1506 1.0899-0.27747 1.4546 1.0697 1.8155 1.9138 1.2909 3.0192-0.60562 1.2762-1.9636 2.8168-2.4662 2.7978-0.33844-0.0128-0.31209-0.07 0.11105-0.24108zm1.0327-5.2984c-0.26339-0.29104-0.59795-0.52917-0.74347-0.52917s-0.04908 0.23813 0.21431 0.52917c0.26339 0.29104 0.59795 0.52917 0.74347 0.52917 0.14552 0 0.04908-0.23813-0.21431-0.52917zm12.192 4.2014c-1.9186-2.134-1.957-3.0459-0.18486-4.3975 1.4081-1.074 1.7621-0.91169 0.60825 0.27878-1.0962 1.131-1.1264 1.6656-0.0631 1.1157 0.96834-0.50075 1.2161-0.18371 0.8124 1.0395-0.24157 0.73196-0.2199 1.0568 0.11348 1.7015 1.0088 1.9508 0.35236 2.0845-1.2862 0.262zm-13.648 0.0319c0-0.19403 0.07937-0.2734 0.17639-0.17639 0.09701 0.097 0.09701 0.25577 0 0.35278-0.09701 0.097-0.17639 0.0176-0.17639-0.17639zm-15.529-0.79602c-0.64689-0.26057-1.5692-1.5084-1.308-1.7696 0.09247-0.0925 0.16813-0.0292 0.16813 0.14054 0 0.38054 0.95906 1.367 1.329 1.367 0.14888 0 0.06562-0.32742-0.18502-0.72761l-0.4557-0.7276 0.66509 0.59531c1.4246 1.2752 3.3054 0.29928 3.0596-1.5875-0.14765-1.1333 0.23569-1.3261 0.62111-0.31236 0.77828 2.047-1.6453 3.9277-3.8942 3.0218zm43.227-0.47496c-0.96345-1.0056-0.90836-1.2667 0.0624-0.2959 0.87231 0.87231 1.9965 1.0169 2.814 0.36193 0.49613-0.39748 0.49394-0.40198-0.0643-0.13229-1.4771 0.71357-2.994-0.28619-2.994-1.9734 0-0.64142-0.0979-0.89319-0.29891-0.76895-0.17149 0.10599-0.25326 0.0478-0.19182-0.13652 0.23639-0.70916 0.62792-0.35262 0.70773 0.64448 0.20364 2.5443 2.9901 2.9425 3.5995 0.51432 1.3298-5.2984-12.892-7.9538-18.601-3.4729-2.5446 1.9974-3.1843 2.2989-4.7951 2.2599l-1.4552-0.0352 1.6483-0.18764c1.466-0.16688 1.8645-0.35322 3.6028-1.6846 1.0749-0.82334 2.6549-1.861 3.511-2.3058l1.5566-0.80881-1.7541 0.0927c-1.6907 0.0894-1.8076 0.1416-3.2316 1.4431-3.9217 3.5842-8.6404 2.2885-8.6404-2.3724 0-1.0936-0.18505-1.309-0.82854-0.96466-0.71259 0.38137-0.61053 0.0498 0.32161-1.0448 1.724-2.0244 3.6904-5.3202 3.2076-5.3761-0.24843-0.02877 0.858-0.11806 2.4587-0.19844 3.6203-0.18178 3.436-0.24656 3.9657 1.3942 0.884 2.7383 3.0505 4.1559 7.155 4.6816 8.14 1.0426 12.814 4.161 12.823 8.555 4e-3 2.1128-3.1102 3.3445-4.5792 1.8111zm3.787-0.71312c0-0.0728-0.0595-0.13229-0.13229-0.13229-0.0728 0-0.13229 0.0595-0.13229 0.13229 0 0.0728 0.0595 0.13229 0.13229 0.13229 0.0728 0 0.13229-0.0595 0.13229-0.13229zm-21.859-4.9182c2.3606-1.8568 1.9355-4.9886-1.1459-8.4433l-1.062-1.1906-0.93498 1.0583c-3.0122 3.4096-3.2861 6.7934-0.69022 8.5275 1.1736 0.78402 2.8704 0.80529 3.8331 0.0481zm-3.3137-1.3034-0.62462-0.53299 0.81533 0.4461c0.8101 0.44324 1.6982 0.35665 1.6982-0.16557 0-0.15009-0.17441-0.27289-0.38757-0.27289-0.45425 0-0.93535-0.7984-0.93535-1.5523 0-0.74105 0.9661-0.99446 1.601-0.41994 0.45531 0.41206 0.52053 0.41546 0.66661 0.0348 0.17987-0.46873-0.3165-2.2035-0.69794-2.4392-0.13412-0.08289-0.37155-0.41197-0.52762-0.73129-0.24901-0.50947-0.21469-0.49956 0.28022 0.08088 2.4228 2.8415 0.73862 7.7939-1.8882 5.5524zm-0.75691-0.92222c0-0.0728 0.0595-0.13229 0.13229-0.13229 0.0728 0 0.13229 0.0595 0.13229 0.13229 0 0.0728-0.0595 0.13229-0.13229 0.13229-0.0728 0-0.13229-0.0595-0.13229-0.13229zm-0.26459-0.52917c0-0.0728 0.0595-0.13229 0.13229-0.13229 0.0728 0 0.1323 0.0595 0.1323 0.13229 0 0.0728-0.0595 0.13229-0.1323 0.13229s-0.13229-0.0595-0.13229-0.13229zm-0.22923-1.2742c-0.0475-1.356 1.3076-3.6206 2.1665-3.6206 0.13792 0-0.0637 0.24736-0.44805 0.54969-0.9193 0.72312-1.2949 1.4431-1.5079 2.8899l-0.17523 1.1906zm-19.814 8.4841c-0.14553-0.1819-0.34672-0.59862-0.4471-0.92605-0.249-0.81223-0.61537-0.74861-0.76184 0.1323-0.09356 0.56268-0.11254 0.52232-0.08372-0.17807 0.05352-1.3009 0.61077-1.3092 1.1279-0.0169 0.37046 0.92588 0.53924 1.0832 1.0562 0.98434 0.33842-0.0647 0.55234-0.0158 0.4754 0.10874-0.2091 0.33834-1.0649 0.27299-1.3668-0.10436zm43.503-0.11025c-0.28748-0.28748-0.20113-1.2805 0.14111-1.6228 0.44816-0.44816 1.2572-0.39429 1.4454 0.0962 0.37077 0.96622-0.91226 2.2008-1.5865 1.5265zm1.2445-0.67622c0.35528-0.56417-0.1209-1.1488-0.74166-0.91062-0.57902 0.2222-0.56051 1.5662 0.02 1.4519 0.23906-0.047 0.56381-0.29063 0.72166-0.54128zm-3.2312 0.0589c0-0.3638 0.0601-0.51263 0.13345-0.33073 0.0734 0.1819 0.0734 0.47956 0 0.66146s-0.13345 0.0331-0.13345-0.33073zm-43.944-0.28663c0.01023-0.35168 0.12648-0.87753 0.25834-1.1686 0.16709-0.3688 0.19091-0.20843 0.0786 0.52917-0.18706 1.2285-0.36383 1.5639-0.33694 0.63941zm3.3553 0.064c-3.2335-1.9514 2.6059-5.9521 8.5023-5.8251 1.7136 0.0369 1.7004 0.0418-0.63685 0.23432-5.3861 0.44371-11.002 4.1357-7.8242 5.1442 0.2776 0.0881 0.57152 0.33425 0.65316 0.54699 0.08164 0.21274 0.1224 0.37592 0.09059 0.36262-0.03181-0.0133-0.38505-0.22167-0.78497-0.46303zm19.204-1.2767c0.097-0.097 0.25576-0.097 0.35277 0 0.097 0.097 0.0176 0.17639-0.17638 0.17639-0.19403 0-0.27341-0.0794-0.17639-0.17639zm-1.0124-0.34975c-0.0927-0.14998 0.0135-0.19434 0.24897-0.10398 0.45837 0.17589 0.54224 0.36553 0.16165 0.36553-0.13693 0-0.32171-0.1177-0.41062-0.26155zm-21.036-0.39991c0-0.0728 0.05953-0.13229 0.13229-0.13229 0.07276 0 0.13229 0.0595 0.13229 0.13229 0 0.0728-0.05953 0.1323-0.13229 0.1323-0.07276 0-0.13229-0.0595-0.13229-0.1323zm20.075-0.33073c-0.32911-0.41964-0.31975-0.429 0.0999-0.0999 0.44073 0.34564 0.58089 0.56292 0.36313 0.56292-0.0549 0-0.2633-0.20836-0.46302-0.46303zm-19.599-0.47959c0.38549-0.74085 2.4536-2.6207 3.45-3.136 1.3903-0.71895 1.3029-0.45385-0.1193 0.36185-0.74432 0.42691-1.8621 1.3485-2.484 2.048s-1.0029 1.0262-0.84672 0.72609zm18.417-0.44645-0.50403-0.59531 0.59531 0.50403c0.32742 0.27721 0.59531 0.5451 0.59531 0.59531 0 0.21173-0.21294 0.0554-0.6866-0.50403zm78.298 0.38483c-1.7114-0.082-2.5756-0.58328-1.9993-1.1596 0.74677-0.74676 7.6169-0.55944 7.9144 0.2158 0.31408 0.81848-1.729 1.1445-5.9151 0.94383zm-79.357-1.1533c-0.11697-0.18926-0.07258-0.23364 0.11668-0.11668 0.305 0.1885 0.40949 0.42214 0.18879 0.42214-0.06417 0-0.20163-0.13746-0.30546-0.30546zm-0.63619-0.356c0-0.0728 0.05953-0.13229 0.13229-0.13229 0.07276 0 0.13229 0.0595 0.13229 0.13229 0 0.0728-0.05953 0.1323-0.13229 0.1323-0.07276 0-0.13229-0.0595-0.13229-0.1323zm-0.52917-0.26458c0-0.0728 0.05953-0.13229 0.13229-0.13229 0.07276 0 0.13229 0.0595 0.13229 0.13229 0 0.0728-0.05953 0.13229-0.13229 0.13229-0.07276 0-0.13229-0.0595-0.13229-0.13229zm-0.70556-0.30868c0.09701-0.097 0.25576-0.097 0.35278 0 0.09701 0.097 0.01764 0.17639-0.17639 0.17639-0.19403 0-0.2734-0.0794-0.17639-0.17639zm-0.93155-0.26893c0.191-0.0764 0.4192-0.067 0.50712 0.0209 0.08792 0.0879-0.06835 0.15046-0.34726 0.13897-0.30822-0.0127-0.37092-0.0754-0.15985-0.15985zm-1.4667-0.2672c0.25743-0.0671 0.61462-0.0627 0.79375 0.01 0.17913 0.0725-0.03149 0.12736-0.46806 0.12197-0.43656-5e-3 -0.58312-0.0647-0.32569-0.13177zm-8.2733-1.0073c0-0.0728 0.05953-0.13229 0.13229-0.13229 0.07276 0 0.13229 0.0595 0.13229 0.13229 0 0.0728-0.05953 0.13229-0.13229 0.13229-0.07276 0-0.13229-0.0595-0.13229-0.13229zm12.039-0.13229c-0.08994-0.14553-0.1067-0.26459-0.03726-0.26459 0.06945 0 0.3146-0.0723 0.54478-0.1606 0.27463-0.10538 0.41851-0.0144 0.41851 0.26459 0 0.46676-0.66549 0.58217-0.92604 0.1606zm-11.421-0.17639c0.09701-0.097 0.25576-0.097 0.35278 0 0.09701 0.097 0.01764 0.17639-0.17639 0.17639-0.19403 0-0.2734-0.0794-0.17639-0.17639zm0.79375-0.26459c0.09701-0.097 0.25576-0.097 0.35278 0 0.09701 0.097 0.01764 0.17639-0.17639 0.17639-0.19403 0-0.2734-0.0794-0.17639-0.17639zm0.79375-0.26458c0.09701-0.097 0.25576-0.097 0.35278 0 0.09701 0.097 0.01764 0.17639-0.17639 0.17639-0.19403 0-0.2734-0.0794-0.17639-0.17639zm1.1851-0.26893c0.191-0.0764 0.4192-0.067 0.50712 0.0209 0.08792 0.0879-0.06835 0.15046-0.34727 0.13897-0.30822-0.0127-0.37092-0.0754-0.15985-0.15985zm1.3064-0.25908c0.1819-0.0734 0.47956-0.0734 0.66146 0s0.03307 0.13346-0.33073 0.13346c-0.3638 0-0.51263-0.0601-0.33073-0.13346zm1.4602-0.2727c0.25743-0.0671 0.61462-0.0627 0.79375 0.01 0.17913 0.0725-0.03149 0.12736-0.46806 0.12197-0.43656-5e-3 -0.58312-0.0647-0.32569-0.13177zm2.4424-0.43099c0.7276-0.19201 1.7099-0.5521 2.1828-0.80022s0.8599-0.39094 0.8599-0.3174c0 0.30943-2.1563 1.1995-3.2169 1.3278l-1.1488 0.13897zm3.8365-1.8992c0.34177-0.3638 0.68094-0.66146 0.7537-0.66146s-0.14734 0.29766-0.48912 0.66146-0.68094 0.66146-0.7537 0.66146 0.14734-0.29766 0.48912-0.66146zm0.94305-1.2682c0.09936-0.26094 0.2473-0.40778 0.32877-0.32632 0.08146 0.08146 1.68e-4 0.29496-0.18065 0.47443-0.26131 0.25936-0.2917 0.22897-0.14811-0.14811zm0.37986-0.98078c0-0.19403 0.07937-0.2734 0.17639-0.17639 0.09701 0.09701 0.09701 0.25576 0 0.35278-0.09701 0.09701-0.17639 0.01764-0.17639-0.17639zm0.33099-1.0583c0.06019-0.22389 0.44376-0.41517 0.88004-0.43885 0.66601-0.03615 0.68154-0.02326 0.11189 0.09282-0.3638 0.07413-0.75982 0.27162-0.88004 0.43885-0.14611 0.20325-0.18321 0.17248-0.11189-0.09282zm-10-0.64947c-0.99835-0.99835-0.67447-2.4964 0.65916-3.0488 2.0316-0.8415 3.6697 1.6666 2.017 3.0881-0.91656 0.78839-1.8624 0.77449-2.6762-0.03933zm1.8425-0.04033c0.52742-0.20239 0.52796-0.59704 0.0023-1.6508-0.46037-0.92283-0.92065-1.0472-1.5492-0.41863-1.0334 1.0334 0.14358 2.608 1.547 2.0695zm25.025 0.1606c-1.1159-1.1159-0.16503-3.4396 1.4075-3.4396 0.99307 0 2.0321 0.96294 2.0321 1.8833 0 1.7122-2.2607 2.7351-3.4396 1.5563zm1.8471-0.25591c0.45885-0.29014-0.3877-1.6645-1.1133-1.8074-0.68403-0.13476-0.81479 1.0678-0.174 1.6003 0.63754 0.5298 0.74873 0.54768 1.2873 0.20712zm-18.748-1.5632c-1.2215-0.79878 3.1404-2.6 4.504-1.8599 0.34275 0.18603 1.569 0.53418 2.7251 0.77366 3.4503 0.71477 2.891 1.0527-1.7491 1.0568-2.2313 2e-3 -4.2951 0.06307-4.5861 0.13573-0.29104 0.07267-0.69325 0.02482-0.8938-0.10632zm5.524-0.45902c0.96577-0.22072-1.6806-1.2312-2.7931-1.0665-1.1098 0.1643-2.829 0.90712-2.676 1.1562 0.13707 0.22324 4.4061 0.15321 5.4691-0.08972zm-30.824-0.99193c-0.78138-1.1925 0.41756-2.4156 1.6051-1.6375 0.76505 0.50128 0.82797 1.2192 0.15986 1.8238-0.67469 0.61059-1.2851 0.54616-1.765-0.1863zm59.021 0.2084c-1.0852-1.0852 0.10029-2.6805 1.4537-1.9562 0.92991 0.49767 0.39349 2.3719-0.67885 2.3719-0.19749 0-0.54617-0.1871-0.77485-0.41577zm-33.101-1.4509c-0.10223-0.1654 0.0064-0.46833 0.24138-0.67317 0.23498-0.20484 0.3086-0.22913 0.1636-0.05398-0.36718 0.4435-0.32939 0.8231 0.0671 0.6741 0.87781-0.32989 1.6354-0.4755 1.2568-0.24155-0.7499 0.46333-1.5412 0.59817-1.7288 0.2946zm3.2888-1.0679c0.63968-0.2838 1.2102-0.46889 1.2678-0.41131 0.11438 0.11438-1.9245 0.97632-2.2377 0.946-0.1062-0.01028 0.33028-0.25089 0.96996-0.5347zm-2.3537-0.10807c0-0.07276 0.0595-0.13229 0.13229-0.13229 0.0728 0 0.13229 0.05953 0.13229 0.13229 0 0.07276-0.0595 0.13229-0.13229 0.13229-0.0728 0-0.13229-0.05953-0.13229-0.13229zm0.61736-0.30868c0.097-0.09701 0.25576-0.09701 0.35278 0 0.097 0.09701 0.0176 0.17639-0.17639 0.17639-0.19403 0-0.2734-0.07937-0.17639-0.17639zm1.367-0.45509c0.43657-0.19879 1.0914-0.43446 1.4552-0.52371 0.53124-0.13033 0.5052-0.09112-0.13229 0.19916-0.43656 0.19879-1.0914 0.43446-1.4552 0.52371-0.53124 0.13033-0.5052 0.09112 0.13229-0.19916zm3.3073-0.34813c1.2061-0.5567 1.3659-0.7043 0.93344-0.86229-0.46261-0.16901-0.43939-0.20637 0.20475-0.3295 1.6207-0.30982 1.0449 0.49859-0.97053 1.3625-1.7909 0.76766-1.9187 0.63752-0.16766-0.1707zm-6.3038-1.3024 0.04623-1.2898 0.10127 1.1245c0.12295 1.3651 0.228 1.3733 2.658 0.20877 2.2601-1.0831 2.2268-1.0007 0.70129-1.7393-1.1616-0.56232-1.2529-0.56843-2.3073-0.15427-0.95438 0.37489-1.0446 0.37801-0.69043 0.02385 0.93405-0.93405 4.9777-0.28207 4.6773 0.75414-0.1124 0.38765-3.2984 1.9751-4.4103 2.1975l-0.82228 0.16446zm5.3336 0.78273c0.097-0.09701 0.25576-0.09701 0.35277 0 0.097 0.09701 0.0176 0.17639-0.17638 0.17639-0.19403 0-0.27341-0.07937-0.17639-0.17639zm0.79375-0.26458c0.097-0.09701 0.25576-0.09701 0.35277 0 0.097 0.09701 0.0176 0.17639-0.17639 0.17639-0.19402 0-0.2734-0.07937-0.17638-0.17639zm45.685-1.6728c-6.4757-0.08191-11.804-0.1756-11.84-0.20819-0.17302-0.15498-0.0381-1.1037 0.17578-1.2359 0.68349-0.42242 23.328-0.19278 23.994 0.24332 0.76987 0.50443 0.75224 1.3255-0.0288 1.3399-0.28956 0.0054-5.8248-0.05727-12.3-0.13919zm-107.16-0.39363c0-1.0282 1.0254-1.2115 6.3568-1.1364 5.2546 0.07404 5.7866 0.19389 4.8809 1.0996-0.61485 0.61485-11.238 0.64965-11.238 0.03681zm13.104 0.03216c-1.3984-1.0225-0.46655-1.2289 5.5487-1.2289 5.9962 0 6.5757 0.12169 5.6857 1.194-0.45775 0.55155-10.485 0.58269-11.234 0.03489zm31.134-0.48805c-0.17462-0.17462-0.3175-0.56753-0.3175-0.87312 0-0.30559 0.14288-0.6985 0.3175-0.87312s0.56753-0.3175 0.87312-0.3175c0.30559 0 0.6985 0.14288 0.87312 0.3175s0.3175 0.56753 0.3175 0.87312c0 0.30559-0.14288 0.6985-0.3175 0.87312s-0.56753 0.3175-0.87312 0.3175c-0.30559 0-0.6985-0.14288-0.87312-0.3175zm29.435-0.32622c-0.79678-1.216 0.68148-2.5564 1.7515-1.5881 0.64104 0.58013 0.65057 1.229 0.0264 1.7939-0.67972 0.61514-1.2859 0.54496-1.7778-0.20583zm-18.199-0.32642c-0.09701-0.09701-0.17457-0.30537-0.17234-0.46302 0.0022-0.15765 0.10459-0.12803 0.22749 0.06582 0.1766 0.2786 0.85495 0.09447 3.2371-0.87864 4.4085-1.8009 4.7685-2.3271 0.63655-0.93042-1.2892 0.43579-2.3906 0.74579-2.4476 0.68889-0.1425-0.1425 5.5083-2.0104 6.0819-2.0104 1.363 0-0.91798 1.2349-5.8311 3.1569-1.5955 0.62415-1.4993 0.60357-1.732 0.37085zm0.35278-1.0142c0-0.07276 0.0595-0.13229 0.13229-0.13229 0.0728 0 0.1323 0.05953 0.1323 0.13229 0 0.07276-0.0595 0.13229-0.1323 0.13229s-0.13229-0.05953-0.13229-0.13229zm0.52917-0.26458c0-0.07276 0.0595-0.13229 0.13229-0.13229 0.0728 0 0.13229 0.05953 0.13229 0.13229 0 0.07276-0.0595 0.13229-0.13229 0.13229-0.0728 0-0.13229-0.05953-0.13229-0.13229zm-0.97344-1.6156c-0.92845-2.4195 1.5408-4.2711 3.7077-2.7802 1.7542 1.2069 1.635 1.3934-1.7004 2.6611-1.7219 0.65447-1.8001 0.6591-2.0073 0.11908zm2.5268-0.67275c2.1699-0.95841 2.212-1.039 0.95046-1.8187-1.8148-1.1216-3.2975-0.27842-3.2975 1.8753 0 0.9635 0.0396 0.96254 2.3471-0.05662zm-55.065-0.24638c-2.6351-1.5348 10.978-2.0735 33.536-1.327 4.8212 0.15954 6.7255 0.79634 4.3134 1.4424-1.0808 0.28949-37.344 0.17895-37.849-0.11538zm75.475-0.10773c-0.17962-0.21643-0.25455-0.58122-0.16651-0.81065 0.2354-0.61342 1.8486-0.412 1.9735 0.24641 0.16776 0.88459-1.1894 1.3084-1.807 0.56424zm3.175 0c-1.1492-1.3847-0.72502-1.4179 18.455-1.4483 17.633-0.02793 18.247 0.02408 16.845 1.426-0.61386 0.61386-34.791 0.63542-35.3 0.02227zm-26.049-2.757c-0.10343-0.16734-0.02354-0.22491 0.19549-0.14086 0.38571 0.14801 2.6226-0.63754 5.3456-1.8773 1.935-0.88101 1.6122-1.1242-0.51899-0.39101-0.85372 0.29372-1.6016 0.48464-1.662 0.42427-0.0604-0.06037 0.90812-0.44125 2.1522-0.84641 4.0187-1.3087 3.2936-0.32048-1.1619 1.5835-3.2546 1.3909-4.1104 1.6363-4.3505 1.2478zm0.11717-0.68593c0-0.07276 0.0595-0.13229 0.13229-0.13229 0.0728 0 0.13229 0.05953 0.13229 0.13229 0 0.07276-0.0595 0.13229-0.13229 0.13229-0.0728 0-0.13229-0.05953-0.13229-0.13229zm0.52917-0.26458c0-0.07276 0.0595-0.13229 0.13229-0.13229 0.0728 0 0.13229 0.05953 0.13229 0.13229 0 0.07276-0.0595 0.13229-0.13229 0.13229-0.0728 0-0.13229-0.05953-0.13229-0.13229zm0.79375-0.35224c0.21828-0.13487 0.69453-0.32483 1.0583-0.42214 0.45971-0.12296 0.54041-0.10214 0.26458 0.06828-0.21828 0.13487-0.69453 0.32483-1.0583 0.42214-0.45971 0.12296-0.54041 0.10214-0.26458-0.06828zm-24.672-0.94212c-0.7956-0.60395-0.39814-1.7484 0.60722-1.7484 0.99525 0 1.5006 1.0444 0.77503 1.6019-0.77569 0.59604-0.78828 0.59738-1.3823 0.14649zm53.975 0.08254c-0.94755-0.5519-0.23707-2.3113 0.80037-1.9821 0.78675 0.2497 1.0068 1.1304 0.43924 1.7576-0.52597 0.58119-0.60311 0.59516-1.2396 0.22443zm-30.711-0.15229c-0.85067-0.85067 0.15539-3.0133 1.6253-3.4936 1.3236-0.43255 4.1237 1.0304 3.168 1.6552-1.4281 0.93342-4.5145 2.1172-4.7932 1.8385zm4.054-1.7225 0.66146-0.26176-0.62877-0.51197c-1.4966-1.2186-3.4623-0.89077-3.8237 0.63766-0.40167 1.6984-0.15171 1.8676 1.6 1.0829 0.84125-0.37682 1.8272-0.80292 2.191-0.94688zm-47.371 0.16294c-0.43839-0.52823 0.21747-1.2846 0.89009-1.0265 0.52059 0.19977 0.57386 0.67161 0.12635 1.1191-0.41789 0.41789-0.60703 0.40065-1.0164-0.09265zm94.456 0c-0.55898-0.67352 0.36016-1.4708 0.98048-0.85045 0.43244 0.43244 0.14319 1.2606-0.44029 1.2606-0.10989 0-0.35297-0.18457-0.54019-0.41015zm-51.142-2.1475c-0.38607-0.38607-0.13596-0.88926 0.64195-1.2915 0.45009-0.23275 0.87063-0.37089 0.93453-0.30699 0.0639 0.0639-0.24482 0.26572-0.68605 0.44848-0.95434 0.3953-1.1312 1.19-0.20692 0.93005 0.46602-0.13109 0.50912-0.10711 0.19844 0.11041-0.46697 0.32694-0.64275 0.34878-0.88195 0.10958zm1.6757-0.61736c0.21828-0.14106 0.51594-0.25648 0.66146-0.25648s0.086 0.11542-0.13229 0.25648c-0.21829 0.14106-0.51594 0.25648-0.66146 0.25648s-0.086-0.11542 0.13229-0.25648zm3.1498-1.3133c2.7981-1.3516 2.6534-1.5613-0.37171-0.5388-1.287 0.43502-2.3894 0.74144-2.45 0.68093-0.16874-0.16875 5.5838-1.9787 5.8217-1.8317 0.4769 0.29474-2.6134 2.0431-4.5623 2.5812-0.3638 0.10044 0.33925-0.30077 1.5623-0.89158zm-5.0019-1.8111c0-2.2949 2.1424-3.2665 3.9145-1.7754 1.1747 0.98846 1.1116 1.1056-1.1511 2.1367-2.6573 1.2109-2.7635 1.1971-2.7635-0.36136zm2.5128 0.19487c1.9365-0.91495 1.9721-0.9752 1.0738-1.819-1.3105-1.2312-3.3221-0.33882-3.3221 1.4737 0 1.3788 0.0459 1.3859 2.2482 0.34533zm-38.357 0.1202c-0.48284-0.48284-0.4297-0.86941 0.17166-1.2487 0.57365-0.36185 1.277-0.03088 1.277 0.6009 0 0.78068-0.9092 1.1873-1.4486 0.64784zm25.06 0.25187c-1.1171-0.45005-0.86075-1.9404 0.33376-1.9404 0.96619 0 1.3385 0.66096 0.81895 1.4539-0.44176 0.67422-0.56146 0.72474-1.1527 0.48654zm54.897-0.12393c-0.57824-0.3236-0.59298-1.2514-0.0234-1.47 0.52601-0.20185 1.2569 0.21911 1.3691 0.78852 0.11199 0.56849-0.75925 1.0097-1.3457 0.68152zm-26.263-0.52468c-0.12397-0.3906-4e-3 -0.73112 0.39516-1.1245l0.57299-0.56422 0.50921 0.61988c0.39031 0.47514 0.44615 0.7377 0.23915 1.1245-0.37318 0.69729-1.489 0.6611-1.7165-0.05567zm-17.435-2.5864c-0.0696-0.11258 0.0171-0.20581 0.19259-0.20719 0.1755-0.0014 0.58698-0.08878 0.9144-0.19422 0.89272-0.28748 0.71742 0.0142-0.19259 0.33143-0.43335 0.15106-0.84483 0.18256-0.9144 0.06998zm-30.331-0.71193c-0.43818-0.52798-0.01714-1.3007 0.7087-1.3007 0.9186 0 0.72628 1.6933-0.19488 1.7157-0.09132 0.0022-0.32254-0.18452-0.51382-0.415zm67.733 0c-0.40338-0.48605-0.0593-1.2482 0.62423-1.3828 0.65994-0.13 1.0718 0.8802 0.56538 1.3867-0.52268 0.52268-0.75327 0.52194-1.1896-0.0038zm-37.228-0.26323c0.25119-0.26226 0.51367-0.41989 0.58328-0.35028 0.0696 0.06961-0.13592 0.28418-0.45672 0.47684-0.5573 0.33468-0.56294 0.32904-0.12656-0.12656zm2.3214 0.06347c0.3638-0.20546 0.95912-0.45228 1.3229-0.5485l0.66146-0.17494-0.66146 0.37356c-0.3638 0.20546-0.95912 0.45228-1.3229 0.5485l-0.66146 0.17494zm-1.2347-0.61591c0.097-0.09701 0.25576-0.09701 0.35278 0 0.097 0.09701 0.0176 0.17639-0.17639 0.17639-0.19403 0-0.2734-0.07937-0.17639-0.17639zm0.97014-0.31344c0.21828-0.12788 0.75406-0.30975 1.1906-0.40414 0.50793-0.10983 0.65084-0.0879 0.39688 0.06088-0.21828 0.12788-0.75406 0.30975-1.1906 0.40414-0.50792 0.10983-0.65084 0.0879-0.39687-0.06088zm3.2564-0.28764c1.6226-0.75711 1.7979-1.1371 0.3193-0.69212-1.6846 0.50699-1.8677 0.33567-0.23559-0.22044 2.5041-0.85324 3.0499-0.33031 0.77734 0.74478-0.79135 0.37437-1.5355 0.67104-1.6536 0.65926s0.23851-0.23294 0.79259-0.49147zm-5.8006-0.66228c-0.0805-0.20978-0.09973-0.59673-0.04274-0.8599 0.06471-0.29877 0.15528-0.15552 0.24114 0.38142 0.14409 0.90104 0.0504 1.1269-0.1984 0.47848zm2.2135-0.3885c1.7568-0.83393 1.918-1.1202 1.1745-2.0864-0.61331-0.79702-2.6021-0.58645-2.966 0.31404-0.16256 0.40226-0.23014 0.43777-0.24223 0.1273-0.0485-1.2446 2.9477-1.8588 4.6692-0.95718 1.1974 0.62712 1.7683 1.2555 1.1406 1.2555-0.16662 0-1.1588 0.40776-2.2049 0.90614-1.046 0.49838-2.1996 0.97801-2.5634 1.0658-0.3638 0.08784 0.0827-0.19352 0.99219-0.62524zm-25.687-0.4648c-0.31986-0.31986-0.18368-1.0871 0.22049-1.2422 0.59057-0.22662 1.1906 0.08829 1.1906 0.62485 0 0.60978-0.98692 1.0416-1.4111 0.61736zm54.688-0.22049c-0.2096-0.54621 0.0746-1.1906 0.52507-1.1906 0.20503 0 0.52101 0.17859 0.70216 0.39688 0.38127 0.4594-0.05 1.1906-0.70216 1.1906-0.20503 0-0.44131-0.17859-0.52507-0.39688zm-30.931-2.5311c-0.0959-0.1552-0.11765-0.33893-0.0483-0.40829 0.0694-0.06936 0.1966 0.05763 0.28277 0.28219 0.17891 0.46622 0.0264 0.54823-0.23447 0.1261zm0.76053-0.15879c0.097-0.09701 0.25577-0.09701 0.35278 0 0.097 0.09701 0.0176 0.17639-0.17639 0.17639-0.19403 0-0.2734-0.07937-0.17639-0.17639zm1.3217-0.51505c0.44501-0.24119 0.69184-0.55325 0.60879-0.76968-0.0909-0.23685-6e-3 -0.31262 0.24371-0.21689 0.59203 0.22718 0.4582 0.56741-0.39721 1.0098-1.0185 0.52667-1.431 0.50566-0.45529-0.02318zm-1.6745-0.23461c0-0.07276 0.0595-0.13229 0.13229-0.13229 0.0728 0 0.13229 0.05953 0.13229 0.13229 0 0.07276-0.0595 0.13229-0.13229 0.13229-0.0728 0-0.13229-0.05953-0.13229-0.13229zm0.61736-0.30868c0.097-0.09701 0.25576-0.09701 0.35277 0 0.097 0.09701 0.0176 0.17639-0.17638 0.17639-0.19403 0-0.27341-0.07937-0.17639-0.17639zm0.79375-0.26458c0.097-0.09701 0.25576-0.09701 0.35277 0 0.097 0.09701 0.0176 0.17639-0.17638 0.17639-0.19403 0-0.27341-0.07937-0.17639-0.17639zm-13.214-0.99468c-0.24072-0.6273 0.09988-1.2608 0.62362-1.16 0.2929 0.05641 0.46382 0.3304 0.46382 0.74354 0 0.75423-0.8351 1.074-1.0874 0.41643zm11.116 0.0083c-0.07789-0.20298-0.09417-0.82806-0.03617-1.3891 0.10016-0.96892 0.10767-0.95706 0.14992 0.23676 0.0519 1.4675 0.10396 1.4814 2.023 0.5402 1.8984-0.93108 1.864-1.3014-0.14266-1.5343-2.4744-0.28719-1.6637-0.45312 1.1904-0.24362 3.1263 0.22948 3.1112 0.43082-0.13055 1.7399-2.8386 1.1463-2.8616 1.1512-3.0539 0.65007zm18.677-0.02976c-0.29277-0.35276-0.28136-0.48996 0.07-0.84128 0.5674-0.5674 1.3155-0.25216 1.207 0.50859-0.10338 0.72468-0.8008 0.90639-1.2769 0.33268zm-19.965-4.3534c-0.2234-0.24686-0.40257-0.55852-0.39814-0.69258 0.0044-0.13406 0.12753-0.03875 0.27356 0.21181 0.50306 0.86314 5.7273 0.56788 6.6841-0.37777l0.74796-0.73925-2.3355-0.0041c-1.2845-0.0022-2.4995-0.10798-2.7001-0.235-0.56525-0.35802-0.093-0.81889 0.84326-0.82289 2.5367-0.01085 2.6482-0.75302 0.2302-1.5318-2.2425-0.72225-2.1568-0.72795-2.2001 0.14636-0.03307 0.66785-0.04578 0.67621-0.15469 0.10178-0.19028-1.0036 0.25357-1.2007 1.6883-0.74994 1.9243 0.6046 3.8234 0.72127 5.4784 0.33655 1.6681-0.38776 2.1329-0.16209 1.974 0.95851-0.0786 0.55434-0.26283 0.62562-2.0233 0.78281-3.3599 0.3-2.8399 0.57518 1.1431 0.60498l2.1167 0.01583-0.0422 0.88882c-0.0691 1.4569-0.19368 1.4897-5.7826 1.5235-4.5194 0.02738-5.1857-0.02283-5.5431-0.41771zm0.12298-2.5238c0.34177-0.3638 0.68094-0.66146 0.7537-0.66146 0.07276 0-0.14734 0.29766-0.48912 0.66146-0.34177 0.3638-0.68094 0.66146-0.7537 0.66146s0.14734-0.29766 0.48912-0.66146zm2.3184-4.237c-2.0361-0.74792-4.7038-3.1468-4.6983-4.225 7.45e-4 -0.14812 0.26864 0.16814 0.59531 0.70279 0.91717 1.5011 3.4193 3.1429 4.7506 3.1172 0.51803-0.01 0.4688-0.08415-0.33959-0.51151-4.0602-2.1464-4.9386-7.5506-1.7615-10.837 1.0843-1.1216 1.8456-1.5474 4.4929-2.5127 1.5509-0.56551 1.5809-0.83424 0.1323-1.1842l-1.1245-0.27164 1.3229 0.14188c5.6908 0.61034 9.5878 9.7345 5.5759 13.055-0.38631 0.31973-0.37031 0.20747 0.0986-0.69223 3.2979-6.3272-4.4783-13.317-9.7075-8.7256-4.4325 3.8918-1.7539 10.813 4.4351 11.46 1.5322 0.16015 1.6002 0.19482 1.0168 0.51831-0.81043 0.44937-3.5243 0.42949-4.7891-0.03508zm5.7514-0.65782c0.0899-0.14552 0.28259-0.26458 0.42811-0.26458s0.191 0.11906 0.10106 0.26458c-0.0899 0.14552-0.28258 0.26458-0.4281 0.26458-0.14553 0-0.191-0.11906-0.10107-0.26458zm-6.0128-2.7571c-3.5692-3.6751 0.2604-10.663 4.3685-7.9714 3.3682 2.207 1.5949 8.3778-2.164 7.5301-1.0496-0.23673-1.3381-0.12227-0.87039 0.3454 0.1722 0.1722 0.31309 0.46787 0.31309 0.65705 0 0.61795-0.75043 0.36234-1.6472-0.56107zm0.94849-0.14516c-0.55768-0.94408-0.33967-1.2629 0.57778-0.84487 1.4131 0.64385 3.5605 0.1022 3.5605-0.89807 0-0.42845-0.22638-0.4822-1.664-0.39509-1.2607 0.07639-1.7755-0.34241-1.7755-1.4442 0-1.2471 1.3836-1.9204 2.7624-1.3443 1.168 0.48801 1.2962 0.28133 0.67957-1.0958-1.2768-2.8518-5.7282-1.6987-6.2673 1.6235-0.21123 1.3017 0.38022 3.2413 1.3119 4.3024 0.96053 1.094 1.4372 1.1504 0.81465 0.09645zm-5.7509-1.4736c-0.09074-0.23646-0.15474-0.62855-0.14224-0.87131 0.01251-0.24276 0.12763-0.09018 0.25584 0.33907 0.24941 0.83509 0.1612 1.2484-0.1136 0.53224zm-0.14409-3.9806c0.01269-0.30822 0.07539-0.37092 0.15985-0.15985 0.07643 0.191 0.06703 0.4192-0.02089 0.50712-0.08792 0.08792-0.15045-0.06835-0.13896-0.34727zm0.26458-1.0583c0.0127-0.30822 0.07539-0.37092 0.15985-0.15985 0.07643 0.191 0.06703 0.4192-0.02089 0.50712-0.08792 0.08792-0.15045-0.06835-0.13896-0.34727zm0.2437-0.7717c0-0.07276 0.05953-0.13229 0.13229-0.13229 0.07276 0 0.13229 0.05953 0.13229 0.13229 0 0.07276-0.05953 0.13229-0.13229 0.13229-0.07276 0-0.13229-0.05953-0.13229-0.13229zm0.26458-0.52917c0-0.07276 0.05953-0.13229 0.13229-0.13229 0.07276 0 0.13229 0.05953 0.13229 0.13229 0 0.07276-0.05953 0.13229-0.13229 0.13229-0.07276 0-0.13229-0.05953-0.13229-0.13229zm0.26458-0.49677c0-0.05494 0.20836-0.2633 0.46302-0.46302 0.41964-0.32911 0.429-0.31975 0.09989 0.09989-0.34564 0.44073-0.56292 0.58089-0.56292 0.36313zm1.5875-1.5875c0-0.05494 0.20836-0.2633 0.46302-0.46302 0.41964-0.32911 0.429-0.31975 0.09989 0.09989-0.34564 0.44073-0.56292 0.58089-0.56292 0.36313zm1.4396-1.0761c0.28248-0.22631 0.62974-0.41147 0.7717-0.41147 0.33617 0 0.18607 0.12221-0.62383 0.50792-0.6237 0.29703-0.63214 0.29153-0.14787-0.09645zm1.2944-0.58786c0.097-0.09701 0.25576-0.09701 0.35277 0 0.097 0.09701 0.0176 0.17639-0.17638 0.17639-0.19403 0-0.27341-0.07937-0.17639-0.17639zm0.92053-0.26894c0.19099-0.07643 0.4192-0.06703 0.50711 0.02089 0.0879 0.08792-0.0683 0.15045-0.34726 0.13896-0.30823-0.0127-0.37092-0.07539-0.15985-0.15985z" fill="#ee9431"/><path d="m104.01 266.83c-0.31685-0.51616-3.8043-9.8816-5.8868-15.809l-2.324-6.6146-0.17916-19.579c-0.09854-10.769-0.1938-42.015-0.21169-69.437-0.01789-27.422-0.13127-49.956-0.25197-50.077-0.41599-0.416-4.4294-0.5575-6.2215-0.21936-2.5095 0.47352-2.6439 0.61808-2.144 2.3069 1.6345 5.5213-6.4493 8.2343-8.5041 2.854-1.9439-5.09 3.3894-9.6721 13.395-11.508 4.9853-0.91485 6.2368-1.9474 6.1491-5.0736-0.03749-1.3374 0.06797-2.0439 0.37502-2.5125 0.38444-0.58672 0.42126-2.5209 0.36804-19.334l-0.05913-18.682-0.9112-1.0086c-1.2112-1.3406-1.2484-2.6266-0.11745-4.0498 1.2347-1.5537 1.1201-2.7713-0.41538-4.4128-6.9103-7.3876 0.45952-18.881 10.169-15.859 6.8628 2.136 9.1504 10.986 4.1166 15.927-1.6165 1.5864-1.6056 2.1892 0.0855 4.7638 0.88008 1.3398 0.77478 2.3208-0.39589 3.6883l-0.99219 1.1589-0.0782 18.127c-0.0677 15.674-0.0236 18.294 0.32516 19.36 0.22192 0.67849 0.37615 1.9409 0.34282 2.8062-0.11984 3.1114 1.133 4.0747 6.6567 5.1184 9.0072 1.7019 13.523 5 13.523 9.8757 0 4.1955-4.7834 6.0958-7.7831 3.092l-1.0805-1.082v-4.8757l-0.79375-0.40103c-1.0515-0.53126-7.074-0.57654-7.5935-0.0571-0.28012 0.28009-0.35649 13.163-0.41146 69.412l-0.0675 69.069-0.82058 2.0251c-0.45132 1.1138-1.1548 3.0371-1.5632 4.274-0.40843 1.2369-1.2212 3.5586-1.806 5.1594s-1.551 4.2796-2.147 5.9531c-1.9871 5.5799-2.3354 6.2928-2.7469 5.6224zm-1.7226-10.156c-3.7811-11.82-4.0222-12.78-4.0343-16.054-0.01104-2.975 0.13669-2.9454 0.68834 0.13789 0.84051 4.6978 4.6017 17.01 5.1962 17.01 0.76368 0 0.11616-9.8244-0.78006-11.835l-0.85276-1.9135 3e-3 -56.795 3e-3 -56.795-1.055-2.6296c-0.58025-1.4463-1.1872-3.4237-1.3488-4.3942-0.73524-4.4158-0.78961-4.5846-1.8388-5.7063-1.6902-1.8071-1.5893-5.988-1.5139 62.696l0.06937 63.219 2.325 6.7469c2.6247 7.6164 3.3249 9.4954 3.7375 10.029 0.63872 0.82639 0.42041-0.52615-0.59965-3.715zm4.5433 1.491c0.36893-1.1642 1.3495-4.0217 2.1791-6.35 0.8296-2.3283 1.8206-5.1858 2.2021-6.35l0.69377-2.1167 0.0724-62.574c0.0741-63.984 0.0753-63.855-0.6043-63.595-0.34759 0.13339-0.39479 7.4099-0.39942 61.572-6e-3 69.637 0.26634 62.616-2.7872 71.87-2.1266 6.4448-2.8876 9.3657-2.5742 9.881 0.23779 0.39097 0.53155-0.17311 1.2177-2.3382zm-1.5912-76.234 0.0517-62.949 0.89468-1.3942c0.49207-0.76682 1.4148-1.7521 2.0505-2.1895 1.3907-0.95684 1.4075-1.0942 0.25748-2.1039-0.4941-0.43383-1.1585-1.3529-1.4765-2.0424-0.77744-1.6858-1.1468-1.9151-3.0841-1.9151h-1.6537l-0.86295 1.619c-0.47462 0.89048-1.2555 1.9323-1.7353 2.3151-0.80862 0.6452-1.1553 1.3575-0.6606 1.3575 0.40684 0 3.1949 2.6625 3.7809 3.6105l0.59087 0.95607-0.0603 61.712c-0.0644 65.875-0.1189 62.64 1.0804 64.085 0.73387 0.88425 0.77719-2.4193 0.82699-63.062zm0.44857-67.832c0-1.7649 0.40351-2.0902 1.1602-0.93535 0.57587 0.87888 0.53896 1.2674-0.18506 1.9476-0.88858 0.83478-0.97513 0.74494-0.97513-1.0122zm-7.4312-1.7757c1.9155-2.3238 1.8983-3.3985-0.07787-4.8518-1.1798-0.86761-1.9561-0.67971-1.1 0.26625 0.33697 0.37235 0.40095 0.63051 0.21465 0.86615-0.14597 0.18463-0.34379 1.318-0.43958 2.5185-0.20419 2.559 0.08166 2.8037 1.4028 1.2009zm13.781 0.5719c0-0.2255-0.18542-0.76857-0.41205-1.2068-0.33338-0.64469-0.35505-0.96952-0.11348-1.7015 0.40371-1.2232 0.15594-1.5403-0.8124-1.0395-1.0633 0.54986-1.0331 0.0153 0.0631-1.1157 1.1538-1.1905 0.79981-1.3527-0.60825-0.27878-1.7721 1.3516-1.7338 2.2635 0.18486 4.3975 1.2624 1.404 1.6982 1.6466 1.6982 0.94482zm-27.83-2.1027c0.91907-0.77335 1.2114-1.6774 0.84991-2.6282-0.38542-1.0137-0.76876-0.82095-0.62111 0.31236 0.24267 1.8627-1.6552 2.8773-3.0068 1.6075-0.3599-0.3381-0.61237-0.88353-0.61237-1.3229 0-0.99419 0.34621-0.94634 0.81215 0.11227 0.45294 1.0291 1.3929 1.2867 1.8153 0.49745 0.2847-0.53198-0.19824-1.3574-0.79422-1.3574-0.77386 0-0.2033-1.8412 0.82228-2.6535 4.0562-3.2125 11.344-3.0933 15.783 0.2582 3.9416 2.9762 6.2127 2.939 10.169-0.1664 5.7086-4.4809 19.93-1.8256 18.601 3.4729-0.59477 2.3698-3.552 2.0263-3.552-0.41254 0-1.2435-0.43893-1.5642-0.80891-0.59105-1.0188 2.6796 2.3487 4.6909 4.4072 2.6324 3.6841-3.6841-2.5318-9.0056-11.924-10.209-4.0682-0.52109-6.2452-1.9318-7.1448-4.6298-0.56956-1.7082-0.23038-1.6122-5.1586-1.4599l-4.2791 0.13229-0.4727 1.3982c-0.92198 2.727-2.4878 3.6639-7.8269 4.6831-6.6137 1.2625-9.8608 3.0703-11.23 6.2523-1.4249 3.3124 1.5842 6.2489 4.172 4.0714zm18.278-5.7607c-2.5959-1.7342-2.322-5.118 0.69022-8.5275l0.93498-1.0583 1.062 1.1906c4.4303 4.9669 2.2724 11.708-2.6872 8.3953zm3.0296-1.5829c1.6425-2.2096-0.55305-7.1625-2.4074-5.4308-1.4596 1.3631-1.7516 2.9558-0.86164 4.7002 0.89809 1.7604 2.2748 2.0681 3.269 0.73058zm21.38 5.5076c0.53214-1.1679-0.44033-2.0247-1.3105-1.1546-0.34224 0.34224-0.42859 1.3353-0.14111 1.6228 0.39128 0.39128 1.1752 0.13844 1.4516-0.46819zm-22.045-16.55c4.6402-0.0041 5.1994-0.34206 1.7491-1.0568-1.156-0.23949-2.3823-0.58763-2.7251-0.77366-1.3636-0.7401-5.7255 1.0611-4.504 1.8599 0.20054 0.13114 0.60275 0.17899 0.8938 0.10632 0.29104-0.07267 2.3548-0.13374 4.5861-0.13573zm-1.0689-3.725c6.7208-2.6791 6.1816-3.4654-0.67583-0.98561-2.3817 0.86127-3.4301 1.5368-3.1325 2.0183 0.2553 0.41307 0.02405 0.47578 3.8083-1.0327zm-0.52067-2.4293c2.1704-1.0683 2.2567-1.3376 0.65708-2.0516-2.3903-1.067-4.0505-0.22798-4.0505 2.047v1.1944l0.82229-0.16446c0.45225-0.09045 1.6093-0.55182 2.5712-1.0253zm-1.485-3.1278c6.8927-2.6964 8.8478-4.3385 2.7009-2.2684-3.7842 1.2744-4.8801 1.8988-4.477 2.5511 0.21212 0.34321 0.15175 0.35282 1.7761-0.28265zm0.18376-2.6427c3.3354-1.2677 3.4546-1.4542 1.7004-2.6611-1.7822-1.2262-3.2674-0.76568-3.6333 1.1265-0.41604 2.152-0.18152 2.3382 1.9328 1.5346zm2.4057-4.9126c6.006-2.5666 4.7236-3.0059-1.6605-0.56881-2.1333 0.81438-2.9596 1.3804-2.6786 1.8349 0.2278 0.36859 1.1299 0.10536 4.3392-1.2661zm-1.5875-1.8691c2.8526-1.2536 2.8874-1.3164 1.2208-2.2057-2.2118-1.1803-4.1313-0.32365-4.1313 1.8437 0 1.5645 0.1356 1.5814 2.9104 0.36194zm-0.13229-3.6603c6.047-2.3367 7.5123-3.8532 1.9087-1.9754-3.5608 1.1932-4.6869 1.7239-4.6869 2.2086 0 0.51425 0.31667 0.73665 0.77993 0.54776 0.22589-0.0921 1.1251-0.44351 1.9982-0.7809zm-0.0147-2.6249c2.2627-1.0311 2.3258-1.1483 1.1511-2.1367-1.7721-1.4911-3.9145-0.51948-3.9145 1.7754 0 1.5584 0.10621 1.5723 2.7635 0.36136zm2.7467-4.77c4.5822-1.8879 3.5633-2.3477-1.4091-0.63578-3.3685 1.1597-4.0039 1.5302-3.7516 2.1876 0.16707 0.43538 0.79855 0.2455 5.1607-1.5518zm-1.6239-1.8626c1.0461-0.50769 2.0382-0.92307 2.2049-0.92307 0.62766 0 0.0568-0.62839-1.1406-1.2555-2.6448-1.3852-6.1724 0.91652-4.8022 3.1335 0.26623 0.43078 1.5683 0.09816 3.738-0.95489zm-0.33842-3.8359c0.54709-0.54709-0.39169-0.75277-1.583-0.34683-1.2307 0.41933-1.8446 0.96001-1.5786 1.3903 0.17834 0.28857 2.6431-0.52492 3.1617-1.0435zm-0.38761-2.075c3.2268-1.3031 3.252-1.5108 0.20985-1.7341-3.1393-0.23044-3.3701-0.14262-3.3701 1.2822 0 1.7797-0.09438 1.7662 3.1603 0.45188zm6.6401-3.6483c0.16596-0.16599 0.32073-0.70177 0.34391-1.1906l0.0422-0.88882-2.1167-0.01583c-3.983-0.0298-4.503-0.30498-1.1431-0.60498 1.7604-0.15719 1.9447-0.22848 2.0233-0.78281 0.15886-1.1206-0.30591-1.3463-1.974-0.95851-1.6463 0.38268-3.552 0.26842-5.4487-0.32668-1.4561-0.45688-1.7919-0.33058-1.7919 0.67394 0 0.43872-0.26503 0.98099-0.66146 1.3534-0.7615 0.71539-0.88152 1.9641-0.25527 2.6561 0.50022 0.55273 10.437 0.62945 10.982 0.08479zm-3.7512-6.8105c0.58342-0.32349 0.51541-0.35816-1.0168-0.51831-6.1891-0.64689-8.8677-7.568-4.4351-11.46 5.2292-4.5913 13.005 2.3984 9.7075 8.7256-0.46895 0.8997-0.48495 1.012-0.0986 0.69223 2.2796-1.8867 1.6561-8.2132-1.079-10.948-6.0194-6.0194-16.306 1.9902-12.373 9.6343 1.6409 3.1895 6.7158 5.3046 9.2955 3.8742zm1.4914-0.6929c0.0899-0.14552 0.0445-0.26458-0.10106-0.26458-0.14552 0-0.33817 0.11906-0.42811 0.26458-0.0899 0.14552-0.0445 0.26458 0.10107 0.26458 0.14552 0 0.33816-0.11906 0.4281-0.26458zm-4.8948-2.196c0-0.18918-0.14089-0.48485-0.31309-0.65705-0.46768-0.46767-0.17924-0.58213 0.87039-0.3454 3.0566 0.68937 4.8524-2.3892 3.3843-5.8018-2.0227-4.7018-8.6697-0.80489-6.9258 4.0604 0.6815 1.9013 2.9842 4.0186 2.9842 2.7439zm-12.791 52.248c-0.73653-0.81386-0.26745-2.162 0.75226-2.162 0.36193 0 1.1911 1.39 1.1911 1.9967 0 0.73056-1.3295 0.84362-1.9434 0.16526zm27.109 0.02083c-0.64079-0.53249-0.51003-1.7351 0.174-1.6003 0.72563 0.14296 1.5722 1.5173 1.1133 1.8074-0.5386 0.34057-0.64979 0.32268-1.2873-0.20712z" fill="#5c251a"/></g></g></svg>
