<?xml version="1.0" encoding="UTF-8" standalone="no"?>
<!-- Created with Inkscape (http://www.inkscape.org/) -->

<svg
   width="5461.3335"
   height="5461.3335"
   viewBox="0 0 1444.9778 1444.9778"
   version="1.1"
   id="svg1"
   xml:space="preserve"
   inkscape:version="1.3 (0e150ed6c4, 2023-07-21)"
   sodipodi:docname="CardTexture.svg"
   xmlns:inkscape="http://www.inkscape.org/namespaces/inkscape"
   xmlns:sodipodi="http://sodipodi.sourceforge.net/DTD/sodipodi-0.dtd"
   xmlns="http://www.w3.org/2000/svg"
   xmlns:svg="http://www.w3.org/2000/svg"><sodipodi:namedview
     id="namedview1"
     pagecolor="#ffffff"
     bordercolor="#000000"
     borderopacity="0.25"
     inkscape:showpageshadow="2"
     inkscape:pageopacity="0.0"
     inkscape:pagecheckerboard="0"
     inkscape:deskcolor="#d1d1d1"
     inkscape:document-units="px"
     inkscape:zoom="0.1280329"
     inkscape:cx="4225.4764"
     inkscape:cy="2604.7992"
     inkscape:window-width="1920"
     inkscape:window-height="1009"
     inkscape:window-x="1912"
     inkscape:window-y="-8"
     inkscape:window-maximized="1"
     inkscape:current-layer="layer1" /><defs
     id="defs1" /><g
     inkscape:label="Layer 1"
     inkscape:groupmode="layer"
     id="layer1"
     transform="translate(617.46124,573.98889)"><path
       style="fill:#6c5d53"
       d="M 762.95821,408.67361 V -51.877779 h 9.525 9.525 V 408.67361 869.225 h -9.525 -9.525 z m 21.87222,0 V -51.877779 h 9.70139 9.70139 V 408.67361 869.225 h -9.70139 -9.70139 z m 22.225,120.47361 V 189.06944 h 9.525 9.525 V 529.14722 869.225 h -9.525 -9.525 z m 0,-682.88958 v -339.98959 h 9.525 9.525 v 339.98959 339.98958 h -9.525 -9.525 z"
       id="path6"
       inkscape:label="Side" /><path
       style="fill:#6c5d53"
       d="m -588.69899,861.07245 c -7.94916,-4.63731 -14.63547,-8.62913 -14.85847,-8.87071 -0.22299,-0.24158 -3.12506,-9.66897 -6.44905,-20.94976 l -6.04362,-20.51052 V 389.14328 -32.454892 l 5.65824,-19.148249 c 3.11203,-10.531537 5.89642,-19.882756 6.18753,-20.780487 l 0.52929,-1.632238 14.97927,-8.686512 14.97928,-8.686512 h 301.01146 301.011465 l 15.03225,8.714661 15.032251,8.714661 6.218649,21.039589 6.218649,21.039589 v 421.05121 421.05121 l -6.195883,20.94663 c -3.407736,11.52064 -6.304924,21.04648 -6.438195,21.16854 -0.133271,0.12206 -6.85068,4.05112 -14.927575,8.73125 l -14.685265,8.50933 -301.403626,-0.0369 -301.40362,-0.0369 z"
       id="path5"
       inkscape:label="Back" /><path
       style="fill:#c8beb7"
       d="m 100.59611,860.91542 -14.838488,-8.62618 -6.239986,-21.09833 -6.239987,-21.09834 -0.0126,-420.84281 -0.01259,-420.842816 6.251875,-21.186594 6.251874,-21.186594 15.033422,-8.711323 15.03343,-8.711323 301.07799,0.01724 301.07799,0.01724 14.96341,8.71401 14.96342,8.71401 6.10813,20.6375 6.10813,20.6375 0.009,421.74584 0.009,421.74583 -6.03513,20.46111 c -3.41396,11.57451 -6.28763,20.7077 -6.61653,21.02887 -0.31977,0.31227 -7.06626,4.32071 -14.9922,8.90764 l -14.41079,8.33988 -301.32532,-0.0181 -301.32532,-0.0181 z"
       id="path4"
       inkscape:label="Front" /><rect
       style="fill:#917c6f;stroke-width:0.262881"
       id="rect6"
       width="636.48999"
       height="105.39283"
       x="98.451294"
       y="-70.066437"
       ry="22.731787" /><rect
       style="fill:#e3dedb;stroke-width:0.502032"
       id="rect7"
       width="636.48999"
       height="384.37384"
       x="98.451294"
       y="462.44009"
       ry="27.107939" /></g></svg>
